<?xml version="1.0" encoding="utf-8"?>
<!-- Generator: Adobe Illustrator 26.3.1, SVG Export Plug-In . SVG Version: 6.00 Build 0)  -->
<svg version="1.1" id="Слой_2" xmlns="http://www.w3.org/2000/svg" xmlns:xlink="http://www.w3.org/1999/xlink" x="0px" y="0px"
	 viewBox="0 0 2800.9 1247.8" style="enable-background:new 0 0 2800.9 1247.8;" xml:space="preserve">
<style type="text/css">
	.st0{fill:#EBF3FA;}
	.st1{fill:#E2EEF9;}
	.st2{fill:#DEEDFF;}
	.st3{fill:#C7DDEA;}
	.st4{fill:#D7E9F2;}
	.st5{fill:#F99746;}
	.st6{fill:#FFB278;}
	.st7{fill:#C2D9EF;}
	.st8{fill:#9ABEDB;}
	.st9{fill:#D3E3EF;}
	.st10{fill:#D1A586;}
	.st11{fill:#E5BD9E;}
	.st12{fill:#DFB697;}
	.st13{fill:#A0795F;}
	.st14{fill:#FFB27D;}
	.st15{fill:#C65447;}
	.st16{fill:#AA413E;}
	.st17{fill:#B5453C;}
	.st18{fill:#ED975D;}
	.st19{fill:#699DEE;}
	.st20{fill:#FFFFFF;}
	.st21{fill:#4A75CB;}
	.st22{fill:#1C468A;}
	.st23{fill:#163560;}
	.st24{fill:#E37970;}
	.st25{fill:#2B478B;}
	.st26{fill:#E7F1FD;}
	.st27{fill:#C45446;}
	.st28{fill:#233862;}
	.st29{fill:#ED7D2B;}
	.st30{fill:#C69D7F;}
	.st31{fill:#E0B594;}
	.st32{fill:#F4A269;}
	.st33{fill:#9E332E;}
	.st34{fill:#DDE3F2;}
	.st35{opacity:0.2;fill:#E37970;}
	.st36{fill:#B2CEE7;}
	.st37{fill:#82B378;}
	.st38{fill:#A8D29F;}
	.st39{fill:#F1A34F;}
	.st40{fill:#FFB973;}
	.st41{fill:#D86713;}
	.st42{fill:#2A4E96;}
	.st43{fill:#ED985F;}
	.st44{fill:#2C3A64;}
	.st45{fill:#BC3F3F;}
	.st46{fill:#A02E2E;}
</style>
<g>
	<path class="st0" d="M2581.2,1249.6L178,1249c0,0-1.5-1.4-4.2-4c-1.1-1-2.3-2.3-3.8-3.7c-3.8-3.8-8.8-9-14.7-15.4
		c-2.3-2.5-4.7-5.2-7.2-8.1c-11.3-12.9-24.8-29.4-38.7-49.2c-3.5-4.9-7-10-10.5-15.3c-0.1-0.2-0.3-0.4-0.4-0.7
		c-1.2-1.7-2.3-3.5-3.5-5.3c0,0,0,0,0,0c-1.7-2.6-3.4-5.3-5.1-8c-6.2-10-12.4-20.6-18.3-31.7c-0.4-0.7-0.7-1.4-1.1-2.1
		c-4.1-7.8-8.2-15.9-12-24.2c-0.3-0.7-0.6-1.4-1-2.1c-0.5-1-0.9-2-1.3-3c-0.4-0.8-0.8-1.7-1.1-2.5c-0.9-2.1-1.9-4.2-2.8-6.4
		c-0.1-0.2-0.2-0.4-0.3-0.6c-0.3-0.6-0.5-1.2-0.8-1.8c-2.8-6.7-5.6-13.6-8.1-20.6c-1.2-3.4-2.4-6.7-3.6-10.2
		c-5-14.8-9.4-30.1-12.9-46c-2.5-11.4-4.5-23-6-34.8c0-0.2,0-0.4-0.1-0.6c-2.2-17.3-3.2-35.1-2.9-53.4c1.5-80,29.8-168.2,106-258.3
		c38.7-45.8,78.6-83.7,118.9-114.4c17.1-13,34.2-24.7,51.5-35.2c85.9-52.5,173.4-75,257.8-75.9c3.4,0,6.8,0,10.2,0
		c99.7,0.9,194.7,31.6,277.5,78.1c53,29.8,167.4,25.2,296.8-48.8c16.9-9.7,34.1-20.6,51.5-32.7c43-30.1,86.9-67.9,130.1-114.8
		c2.7-2.9,5.3-5.8,8-8.8c20.4-22.7,40.7-47.4,60.6-74.2c0.4-0.5,0.8-1,1.2-1.5c6.3-8.4,12.9-16.4,19.8-24.2
		c156.5-176.1,472.5-204.6,727.3-116c17.5,6.1,34.6,12.7,51.5,19.9c59.7,25.4,114.8,57.6,162.3,96.2c9.6,7.8,18.9,15.9,27.8,24.2
		c25,23.3,47.4,48.6,66.5,75.8c2,2.9,4,5.8,6,8.8c65.2,97.9,88.9,219.9,45.4,362.5C2406,949.5,2763.2,960,2581.2,1249.6z"/>
	<polygon class="st1" points="2058.6,715.6 2058.6,654.7 2040.7,654.7 2040.7,550 1945,550 1945,654.7 1855.6,654.7 1855.6,484.1 
		1756.9,484.1 1756.9,594.8 1734.4,594.8 1734.4,462.6 1635.6,462.6 1635.6,710.5 1510.8,710.5 1510.8,855.1 1464.1,855.1 
		1464.1,790.7 1357,790.7 1357,828.8 1295.5,828.8 1295.5,658.4 1219.5,658.4 1219.5,784.5 1143.5,784.5 1143.5,1246.7 
		1219.5,1246.7 1284.6,1246.7 1295.5,1246.7 1357,1246.7 1391.8,1246.7 1447.4,1246.7 1464.1,1246.7 1510.8,1246.7 1554.6,1246.7 
		1635.6,1246.7 1660.4,1246.7 1709.8,1246.7 1734.4,1246.7 1756.9,1246.7 1808.5,1246.7 1843.7,1246.7 1855.6,1246.7 1945,1246.7 
		2039.1,1246.7 2040.7,1246.7 2058.6,1246.7 2134.8,1246.7 2134.8,715.6 	"/>
	<polygon class="st1" points="1153.5,799.7 1153.5,1246.1 280.1,1246.1 280.1,857.7 347.1,857.7 347.1,751.6 414,751.6 414,894.9 
		468.2,894.9 468.2,862.9 562.7,862.9 562.7,917 603.8,917 603.8,795.5 713.7,795.5 713.7,587.1 800.7,587.1 800.7,698.2 
		820.6,698.2 820.6,605.1 907.5,605.1 907.5,748.5 986.4,748.5 986.4,660.5 1070.7,660.5 1070.7,748.5 1086.4,748.5 1086.4,799.7 	
		"/>
	<path class="st2" d="M2186.3,92.3v1151.1h-51.5V72.5C2152.3,78.5,2169.5,85.2,2186.3,92.3z"/>
	<path class="st2" d="M294,491.4v752.1h-51.5V526.6C259.6,513.6,276.8,501.9,294,491.4z"/>
	<path class="st2" d="M1187.8,412v831.4h-51.5V444.7C1153.3,435.1,1170.5,424.2,1187.8,412z"/>
	<path class="st3" d="M1529.2,1098h-39c3.6-29.7,9.5-49.3,9.6-49.6c0.1-0.2,0.1-0.4,0.1-0.7c0,0,1.3-8.1-12.6-8.3
		c-13-0.2-19.3,5.2-20.5,7.2c-3.7-16.7-8.8-30.5-15.1-32.5c-2.7-0.8-5.8-1.2-9.1-1.2c-0.3-1-1.2-3.1-2.5-3.6c-0.1,0-0.3-0.1-0.5-0.1
		c-1-2.3-2-5.3-2.7-8.7c0-0.1,0.1-0.3,0.1-0.4c5.1-6.9,8.1-21.1,5.7-23.6c-8.9-9.2-40.5-3.2-28.3,7.6c-0.1,0.4-0.3,0.8-0.4,1.2
		c-1,3.7,0.4,22.4,5.1,22.9c0,0,1.5,0.1,3.6-0.1c0.1,0.9,0.2,2.4,0.3,4.1c-1.1,0.2-1.7,0.4-1.8,0.4c-2.4,0.9-4.3,3.2-5.2,4.5l0,0
		c0,0-15.7,8.2-17.8,16c-2.1,7.7-9.6,45.3-12.5,47.9c-2.9,2.6-36.4,8.7-36.4,8.7s-0.4,0.5-1,1.3c-2.3-1.3-6-3.2-7.5-3.4
		c-2.1-0.3-11.3,7.3-11.8,9.3c-1,0.7-1.6,1.1-1.6,1.1h-5.1v-1.4h-10c0,0,0,0,0,0c2.8,0,4.9,0,5.2,0c-0.4,0-3.8-0.1-4.3-2.6
		c0-0.2-0.1-0.4-0.1-0.6c0-0.4,0.2-2.5,0.5-5.7c0.1-0.8,0.2-1.7,0.2-2.7c0.2-1.8,0.4-3.9,0.6-6.2l0.2-1.1h68.2l3.9-2.3h-71.9l0,0
		h71.9l-5.2-19.5l0,0l-0.3-1.1h0.1l-22.5-84.1l0-0.1l0,0l0,0h-138.9h-0.2v0.1l-2,0.7l25.3,106.2h41.8l-1.3,15.6c0,0-0.7,4.8,2.9,4.8
		c1.2,0,3.3,0,5.7,0v0H1159c0.1,0,0.1,0,0.2,0l0.5,0c1.2,0,2.1-1,2-2.2l-2.1-20.9h35l0,0h2.5l11.2-91h-2.5l0,0h-120.4l-9.6,78.2
		c-1.8-6.6-3.2-12.1-3.2-12.1c-1-2.5-5-16.8-7-18.9l0,0c0,0,0,0,0,0c-0.8-0.8-2.5-1.5-4.3-2c0.5-0.8,0.7-1.7,0.7-2.7
		c-0.5-5.5,6-5.1,9.9-11.4c3.5-5.5-2.7-6.9,0.6-15.9c2.4-6.6-3.9-8.2-3.7-13.7c0,0-0.8-10.2-15.5-7.6c-3.9,0.7-6.6-6.2-12.9-3.8
		c-13.7,5.3-14.5-1.7-18.4,8.1c-1.7,4.1-12.2,8.9-9,16c3.2,7.1-2.2,11.9,1.6,17.5c2,2.9,1.2,8,10.4,8.2c1.5,0,3.2,0.9,5,2.1
		c-3,0.6-6.9,1.7-9.6,3.6c0,0,0,0,0,0l0,0l0,0l0,0c-0.6,0.4-1.2,0.9-1.7,1.5c0,0-0.1,0.1-0.1,0.1c-0.7,0.8-1.3,2-1.7,3.3l0,0
		c0,0-2,5.3-4.1,12c-2.1-0.5-4.6-0.8-7.5-0.7c-0.3,0-0.7,0-1,0c-0.7,0-1.5,0-2.2,0c-12.5,0.2-11.3,8.1-11.3,8.1c0,0.3,0,0.5,0.1,0.7
		c0.1,0.3,4.8,17.2,8.1,43.4h-46.1c-4.2,0-7.7,3.4-7.7,7.7l0,0c0,4.2,3.4,7.7,7.7,7.7h31.6l-0.3,2.1l-8.9,66.3l-8.3,61.9
		c-0.1,0.7,0.5,1.4,1.2,1.4c0.9,0,1.6-0.6,1.7-1.4l9.6-54.6l10.8-61.1v0l2.6-14.5h7.6c0.9,11,1.5,23,1.4,35.7c0,0.1,0,0.1,0,0.2
		c-0.1,0.2-0.1,0.4-0.1,0.5v1.3c0,0.1,0,0.2,0,0.3c0,0.2,0,0.4,0,0.6c0,0,0.1,0,0.2,0c0.3,0.6,1,1.1,1.7,1.1h0.5
		c0,0.1-0.1,0.2,0,0.2c0,0.4,2.9,35-8.4,91.4h2.1c15.5-45.2,14.8-85,14.1-91.6h10.3c0,0.1-0.1,0.2,0,0.2c0,0.4,2.9,35-8.4,91.4h2.1
		c15.5-45.2,14.8-85,14.1-91.6h40.3c-0.7,6.6-1.4,46.4,14.1,91.6h2.1c-11.3-56.4-8.4-91-8.4-91.4c0-0.1,0-0.2,0-0.2h10.2
		c-0.7,6.6-1.4,46.4,14.1,91.6h2.1c-8.1-40.4-8.9-69.6-8.7-83.1c0.2,2.4,0.5,5,0.9,7.6c1.7,10.7,29.6,54,29.6,54s0.3,0.1,0.7,0.2
		c0.3,1.1,0.6,2.1,0.8,2.9c0.6,2.4-0.3,5.1-1,7.1c-0.4,1.1-0.8,2.2-0.9,3.5c-0.3,3.4,4.4,4.2,9.9,4.5c5.5,0.3,3.8,1.4,11.4,2.8
		c7.5,1.4,10.6-0.7,11.1-1.7c0.2-0.4-0.5-1-1.7-1.6c0.8,0.1,1.7,0.1,2.6,0.2c5.5,0.3,3.8,1.4,11.4,2.8c7.5,1.4,10.6-0.7,11.1-1.7
		c0.5-0.9-3-2.3-6.8-3.9c-0.5-0.2-0.9-0.4-1.4-0.6c-4.2-1.9-6.6-5.6-9.9-9.1c-1.4-1.5-2.8-4.5-3.9-7.3c1.2-0.4,1.7-0.8,1.7-0.8
		s-20.6-94.3-33.4-102.4c-1.8-1.2-4.8-2-8.6-2.7c0.2-0.2-0.5-0.9-1.5-1.8h271.2c-20.9,4.6-42.7,10.4-46.4,15.7
		c-7.4,10.5-19,100.3-19,100.3s0.1,0,0.3,0.1c-4.7,5.4-12.5,8.4-17.4,9.3c-6.2,1.1-6.3,6.2-6.3,6.2l21.1,0.1c0,0,16.5,0,17,0
		c2.4-0.2,3.6-8.8,4.1-13.9c0.4-0.1,0.7-0.2,1-0.3c0,0,27.6-71.1,29.8-78.8c0.2-0.8,1-1.5,2.2-2c0.2,0.1,0.5,0.2,0.8,0.2h5.5
		c0,0.1-0.1,0.2-0.1,0.3c0,0.1,0.1,1.4,0.2,4c-1.6,2-2.8,4.2-3.1,6.5c-0.5,4.9,0.2,22.3,1.1,38.2c-1.2,10.8-3,23.1-5.7,36.8
		c-3,1.4-6.1,2.4-8.5,2.8c-6.2,1.1-6.3,6.2-6.3,6.2l12.9,0.1c0,0,0,0,0,0h2.4c0,0,0,0,0,0l5.8,0c0,0,6.9,0,11.9,0c0,0,0,0,0,0h2.4
		c0,0,0,0,0,0c1.5,0,2.6,0,2.7,0c2.8-0.2,4-12.5,4.3-16.4c0.6-0.2,1.1-0.5,1.4-0.8c0,0,0.5-6.4,1.1-15.1c4.9-21.7,6.3-40.1,6.4-51.4
		c6.8-3,21.5-7.6,33.6-11.1h11.1c-0.7,6.9-1.6,48,15.8,94.8h2.4c-12.6-58.3-9.4-94.1-9.3-94.6c0-0.1,0-0.2-0.1-0.3h11.5
		c-0.7,6.9-1.6,48,15.8,94.8h2.4c-12.6-58.3-9.4-94.1-9.3-94.6c0-0.1,0-0.2-0.1-0.3h0.6c0.8,0,1.5-0.4,1.9-1.1c0.1,0,0.2,0,0.2,0
		c0-0.2,0-0.4,0-0.6c0-0.1,0-0.2,0-0.4v-1.2c0-0.2,0-0.4-0.1-0.6c0-0.1,0-0.2,0-0.2c-0.1-11.6,0.4-22.6,1.2-32.8h7.5l2.1,11.9
		l12.3,69.8l8.6,48.5c0.1,0.8,0.9,1.4,1.7,1.4c0.8,0,1.3-0.7,1.2-1.4l-6.3-47.2l-10.7-79.6l-0.5-3.4h24.5c4.2,0,7.7-3.4,7.7-7.7l0,0
		C1536.9,1101.5,1533.5,1098,1529.2,1098z M1246,1075.3L1246,1075.3L1246,1075.3L1246,1075.3L1246,1075.3h39l0,0H1246z
		 M1117.1,1094.7c-0.8,0-1.5,0.5-1.7,1.2c-0.3,1.1,0.5,2.1,1.6,2.1h-27.3c-1.5-1.5-2.9-3-4.1-4.4c0.3-0.4,0.5-0.8,0.8-1.1
		c1.2-1.9,2.1-3.4,2.4-3.8c1-1.1-4-3.3-6.1-5c-0.7-0.5-1.9-4.2-3.4-8.9h54.9l-0.5,15.8c-0.1,2.3-1.9,4-4.2,4h-9.7H1117.1z
		 M1150,1220.6c0.6,2,1.1,4,1.5,5.4c0.6,2.4-0.3,5.1-1,7.1c-0.4,1.1-0.8,2.2-0.9,3.5c0,0.4,0,0.7,0.1,1c-3.7-2-6-5.5-9.1-8.7
		c-0.9-1-1.9-2.7-2.7-4.5c0.9-0.3,1.3-0.6,1.3-0.6s-2-11-5-25.9c7.7,11.9,15.1,22.6,15.1,22.6S1149.5,1220.5,1150,1220.6z
		 M1064.4,1088.7c0.4,0.8,0.8,1.5,1.3,2.3c1.3,2,3.1,4,4.8,5.6c0.5,0.5,1,1,1.5,1.4h-6.8c0,0,0,0,0,0l5.8,0c1.4,0-4.4-4.9-7-5.7
		c0-0.6,0.1-1.2,0.2-1.9v0C1064.2,1089.9,1064.3,1089.3,1064.4,1088.7z M1085.7,1113.3h1.3
		C1086.5,1113.3,1086.1,1113.3,1085.7,1113.3C1085.7,1113.3,1085.7,1113.3,1085.7,1113.3z M1112.9,1114.3
		C1112.9,1114.3,1113,1114.3,1112.9,1114.3c0.1,0,0.2,0,0.3,0C1113.1,1114.3,1113,1114.3,1112.9,1114.3z M1103,1113.6
		c1.1,0,4.3,0.1,5.2,0.3c0,0,0,0,0,0c-5-0.3-10.4-0.5-16-0.5h9.4C1102.2,1113.5,1102.6,1113.6,1103,1113.6z M1412.9,1075.3
		c3,10.8,3.2,17.8,2.6,22.7h-16.4C1399.1,1098,1406.6,1087.1,1412.9,1075.3z M1346,1098C1346,1098,1346,1098,1346,1098
		c0.2,0,0.5,0,0.8,0c0,0,0,0,0,0L1346,1098z M1379.1,1233.4c1-3.1,1.9-6.1,2.7-9.1c0.1,2.2,0.2,3.4,0.2,3.4s1,0.2,2.6,0.4
		C1383.1,1230.2,1381.2,1231.9,1379.1,1233.4z"/>
	<path class="st4" d="M2699.8,1096.7h-39.3c3.7-30,9.6-49.8,9.7-50.1c0.1-0.2,0.1-0.5,0.1-0.7c0,0,1.3-8.2-12.7-8.4
		c-13.1-0.2-19.5,5.2-20.7,7.2c-3.7-16.8-8.9-30.8-15.2-32.8c-2.7-0.8-5.9-1.2-9.2-1.2c-0.3-1-1.2-3.2-2.5-3.7
		c-0.1,0-0.3-0.1-0.5-0.1c-1-2.4-2.1-5.3-2.7-8.8c0-0.1,0.1-0.3,0.1-0.4c5.2-6.9,8.2-21.3,5.8-23.8c-9-9.3-40.8-3.3-28.5,7.7
		c-0.1,0.4-0.3,0.8-0.4,1.2c-1,3.7,0.4,22.6,5.1,23.1c0,0,1.5,0.1,3.6-0.1c0.1,1,0.2,2.4,0.3,4.2c-1.1,0.3-1.7,0.4-1.8,0.4
		c-2.5,0.9-4.3,3.2-5.3,4.5l0,0c0,0-15.9,8.3-18,16.1c-2.1,7.8-9.7,45.7-12.7,48.3s-36.7,8.8-36.7,8.8s-0.4,0.5-1,1.3
		c-2.3-1.3-6-3.2-7.6-3.4c-2.1-0.3-11.4,7.4-11.9,9.4c-1,0.7-1.6,1.2-1.6,1.2h-5.2v-1.5H2481c0,0,0,0,0,0c2.9,0,4.9,0,5.2,0
		c-0.4,0-3.8-0.1-4.3-2.6c0-0.2-0.1-0.4-0.1-0.6c0-0.4,0.2-2.5,0.5-5.8c0.1-0.8,0.2-1.7,0.2-2.7c0.2-1.9,0.4-4,0.6-6.3l0.2-1.1h68.8
		l3.9-2.3h-72.5l0,0h72.5l-5.2-19.7l0,0l-0.3-1.1h0.1l-22.7-84.8l0-0.1l0,0l0,0h-140.1h-0.2v0.1l-2,0.7l25.6,107.2h42.2l-1.3,15.8
		c0,0-0.7,4.9,2.9,4.9c1.3,0,3.3,0,5.8,0v0h-134.3c0.1,0,0.2,0,0.2,0l0.5,0c1.2,0,2.2-1,2-2.2l-2.1-21.1h35.3v0h2.5l11.3-91.8h-2.5
		l0,0h-121.5l-9.7,78.9c-1.8-6.6-3.2-12.2-3.2-12.2c-1-2.5-5-16.9-7-19.1l0,0c0,0,0,0,0,0c-0.8-0.8-2.5-1.5-4.4-2
		c0.5-0.8,0.8-1.7,0.7-2.8c-0.5-5.6,6-5.1,10-11.5c3.5-5.6-2.7-7,0.6-16.1c2.4-6.6-3.9-8.2-3.7-13.8c0,0-0.8-10.3-15.6-7.6
		c-3.9,0.7-6.6-6.3-13-3.8c-13.8,5.4-14.6-1.7-18.6,8.2c-1.7,4.2-12.3,9-9,16.2c3.2,7.2-2.2,12,1.6,17.6c2,2.9,1.2,8.1,10.5,8.3
		c1.5,0,3.2,0.9,5,2.1c-3,0.6-6.9,1.7-9.7,3.6c0,0,0,0,0,0l0,0l0,0l0,0c-0.6,0.4-1.2,0.9-1.7,1.5c0,0-0.1,0.1-0.1,0.1
		c-0.7,0.9-1.3,2-1.7,3.4l0,0c0,0-2,5.3-4.2,12.1c-2.2-0.5-4.7-0.8-7.5-0.7c-0.3,0-0.7,0-1,0c-0.7,0-1.5,0-2.3,0
		c-12.6,0.2-11.4,8.1-11.4,8.1c0,0.3,0,0.5,0.1,0.7c0.1,0.3,4.9,17.4,8.2,43.8h-46.5c-4.3,0-7.7,3.5-7.7,7.7l0,0
		c0,4.3,3.5,7.7,7.7,7.7h31.9l-0.3,2.1l-9,66.9l-8.4,62.5c-0.1,0.7,0.5,1.4,1.3,1.4c0.9,0,1.6-0.6,1.8-1.4l9.7-55.1l10.9-61.7v0
		l2.6-14.6h7.6c0.9,11.1,1.5,23.2,1.4,36.1c0,0.1,0,0.1,0,0.2c-0.1,0.2-0.1,0.4-0.1,0.5v1.3c0,0.1,0,0.2,0,0.3c0,0.2,0,0.4,0,0.6
		c0,0,0.1,0,0.2,0c0.3,0.6,1,1.1,1.8,1.1h0.5c0,0.1-0.1,0.2,0,0.2c0,0.4,2.9,35.3-8.4,92.2h2.1c15.7-45.6,14.9-85.8,14.2-92.5h10.4
		c0,0.1-0.1,0.2,0,0.2c0,0.4,2.9,35.3-8.4,92.2h2.1c15.7-45.6,14.9-85.8,14.2-92.5h40.7c-0.7,6.7-1.4,46.8,14.2,92.5h2.1
		c-11.4-56.9-8.5-91.8-8.4-92.2c0-0.1,0-0.2,0-0.2h10.3c-0.7,6.7-1.4,46.8,14.2,92.5h2.1c-8.2-40.8-9-70.3-8.8-83.8
		c0.2,2.4,0.5,5,0.9,7.7c1.7,10.8,29.8,54.5,29.8,54.5s0.3,0.1,0.7,0.2c0.3,1.1,0.6,2.1,0.8,2.9c0.6,2.4-0.3,5.1-1.1,7.2
		c-0.4,1.1-0.8,2.3-1,3.5c-0.3,3.4,4.5,4.3,10,4.6c5.6,0.3,3.9,1.4,11.5,2.8c7.6,1.4,10.7-0.7,11.2-1.7c0.2-0.4-0.5-1-1.7-1.6
		c0.8,0.1,1.7,0.1,2.6,0.2c5.6,0.3,3.9,1.4,11.5,2.8s10.7-0.7,11.2-1.7c0.5-0.9-3-2.3-6.8-4c-0.5-0.2-1-0.4-1.4-0.6
		c-4.2-1.9-6.6-5.7-9.9-9.2c-1.4-1.5-2.8-4.5-3.9-7.4c1.2-0.4,1.7-0.8,1.7-0.8s-20.8-95.2-33.7-103.3c-1.9-1.2-4.9-2.1-8.6-2.7
		c0.2-0.2-0.5-0.9-1.5-1.9h273.6c-21.1,4.6-43.1,10.5-46.9,15.8c-7.5,10.6-19.1,101.2-19.1,101.2s0.1,0,0.3,0.1
		c-4.8,5.5-12.6,8.5-17.6,9.4c-6.2,1.1-6.4,6.2-6.4,6.2l21.3,0.1c0,0,16.7,0,17.1,0c2.4-0.2,3.6-8.8,4.1-14c0.4-0.1,0.7-0.2,1-0.3
		c0,0,27.8-71.8,30.1-79.5c0.2-0.8,1-1.5,2.2-2c0.2,0.1,0.5,0.2,0.8,0.2h5.6c0,0.1-0.1,0.2-0.1,0.3c0,0.1,0.1,1.4,0.2,4
		c-1.7,2.1-2.8,4.3-3.1,6.5c-0.5,4.9,0.2,22.5,1.1,38.5c-1.2,10.8-3,23.3-5.7,37.2c-3.1,1.5-6.1,2.4-8.6,2.8
		c-6.2,1.1-6.4,6.2-6.4,6.2l13,0.1c0,0,0,0,0,0h2.4c0,0,0,0,0,0l5.9,0c0,0,7,0,12,0c0,0,0,0,0,0h2.4c0,0,0,0,0,0c1.6,0,2.6,0,2.7,0
		c2.8-0.2,4.1-12.6,4.4-16.5c0.6-0.2,1.1-0.5,1.4-0.8c0,0,0.5-6.4,1.1-15.3c5-21.9,6.3-40.4,6.5-51.9c6.9-3,21.7-7.7,33.9-11.2h11.2
		c-0.8,6.9-1.6,48.5,15.9,95.7h2.4c-12.7-58.8-9.4-95-9.4-95.4c0-0.1,0-0.2-0.1-0.3h11.6c-0.8,6.9-1.6,48.5,15.9,95.7h2.4
		c-12.7-58.8-9.4-95-9.4-95.4c0-0.1,0-0.2-0.1-0.3h0.6c0.8,0,1.5-0.5,1.9-1.1c0.1,0,0.2,0,0.2,0c0-0.2,0-0.4,0-0.6
		c0-0.1,0-0.2,0-0.4v-1.2c0-0.2,0-0.4-0.1-0.6c0-0.1,0-0.2,0-0.2c-0.1-11.7,0.4-22.8,1.2-33.1h7.6l2.1,12l12.4,70.4l8.6,49
		c0.1,0.8,0.9,1.4,1.8,1.4c0.8,0,1.4-0.7,1.3-1.4l-6.4-47.6l-10.8-80.4l-0.5-3.4h24.7c4.3,0,7.7-3.5,7.7-7.7l0,0
		C2707.5,1100.2,2704,1096.7,2699.8,1096.7z M2413.9,1073.7L2413.9,1073.7L2413.9,1073.7L2413.9,1073.7L2413.9,1073.7h39.4l0,0
		H2413.9z M2283.9,1093.3c-0.8,0-1.5,0.5-1.7,1.2c-0.3,1.1,0.6,2.2,1.6,2.2h-27.6c-1.5-1.5-2.9-3-4.1-4.4c0.3-0.4,0.5-0.8,0.8-1.2
		c1.2-1.9,2.1-3.5,2.5-3.8c1-1.1-4.1-3.3-6.2-5c-0.7-0.5-2-4.2-3.4-9h55.4l-0.5,15.9c-0.1,2.3-1.9,4.1-4.2,4.1h-9.8H2283.9z
		 M2317.1,1220.4c0.6,2.1,1.1,4.1,1.5,5.4c0.6,2.4-0.3,5.1-1.1,7.2c-0.4,1.1-0.8,2.3-1,3.5c0,0.4,0,0.7,0.1,1
		c-3.8-2-6.1-5.5-9.2-8.8c-1-1-1.9-2.7-2.7-4.6c0.9-0.3,1.3-0.6,1.3-0.6s-2-11.1-5.1-26.1c7.8,12.1,15.3,22.8,15.3,22.8
		S2316.6,1220.2,2317.1,1220.4z M2582.4,1073.8c3.1,10.9,3.2,18,2.6,22.9h-16.6C2568.4,1096.7,2576.1,1085.7,2582.4,1073.8z
		 M2514.9,1096.7C2514.9,1096.7,2514.9,1096.7,2514.9,1096.7c0.3,0,0.5,0,0.8,0c0,0,0,0,0,0L2514.9,1096.7z M2548.3,1233.3
		c1-3.1,1.9-6.2,2.7-9.2c0.1,2.2,0.2,3.4,0.2,3.4s1,0.2,2.7,0.4C2552.3,1230.1,2550.4,1231.8,2548.3,1233.3z"/>
	<path class="st3" d="M60.6,1043.5L60.6,1043.5l-0.3-1.2h0.1l-24-89.5l0-0.1H20.5c0,0.2,0,0.4,0.1,0.6c1.5,11.8,3.6,23.5,6,34.8
		c3.5,15.8,7.8,31.2,12.9,46c1.2,3.4,2.4,6.8,3.6,10.2c2.6,7,5.3,13.9,8.1,20.6c0.3,0.6,0.5,1.2,0.8,1.8h10l4.1-2.4L60.6,1043.5z
		 M223.7,1090.9c-1.5-1.5-3.5-2.4-5.8-2.4h-41.5c3.9-31.6,10.2-52.5,10.3-52.8c0.1-0.2,0.1-0.5,0.1-0.8c0,0,1.4-8.7-13.4-8.9
		c-13.9-0.2-20.6,5.5-21.8,7.6c-3.9-17.8-9.3-32.5-16.1-34.6c-2.9-0.9-6.2-1.2-9.7-1.3c-0.4-1.1-1.2-3.3-2.6-3.9
		c-0.1-0.1-0.3-0.1-0.5-0.1c-1.1-2.5-2.2-5.6-2.9-9.3c0-0.2,0.1-0.3,0.1-0.5c5.5-7.3,8.6-22.4,6.1-25.1c-9.5-9.8-43.1-3.4-30.1,8.1
		c-0.2,0.4-0.3,0.8-0.4,1.3c-1.1,3.9,0.5,23.9,5.4,24.4c0,0,1.6,0.1,3.8-0.1c0.1,1,0.2,2.6,0.4,4.4c-1.1,0.3-1.8,0.4-1.9,0.5
		c-2.6,0.9-4.6,3.4-5.6,4.8c0,0-4.2,2.2-8.7,5.4c-4.5,3.2-9.2,7.5-10.3,11.6c-2.2,8.2-10.2,48.2-13.4,51c-1,0.9-5,2.1-10.2,3.4
		c0.4,0.8,0.7,1.7,1.1,2.5c0.5,1,0.9,2,1.3,3c0.3,0.7,0.6,1.4,1,2.1c3.8,8.3,7.9,16.4,12,24.2c0.4,0.7,0.7,1.4,1.1,2.1
		c5.9,11.1,12.1,21.7,18.3,31.7c1.7,2.7,3.4,5.4,5.1,8c0,0,0,0,0,0c1.2,1.8,2.3,3.5,3.5,5.3c0.1,0.2,0.3,0.4,0.4,0.7
		c8.1-2.9,19.4-6.4,29.1-9.2h11.9c-0.6,5.9-1.4,35.9,8.3,73.7c2.5,2.9,4.9,5.6,7.2,8.1c-8.9-50.7-6.2-81.1-6.2-81.5
		c0-0.1,0-0.2-0.1-0.3h12.3c-0.8,7.3-1.7,51.1,16.8,101h2.5c-13.4-62.1-10-100.2-9.9-100.7c0-0.1,0-0.2-0.1-0.3h0.6
		c0.8,0,1.6-0.5,2-1.2c0.1,0,0.2,0,0.2,0c0-0.2,0-0.5,0-0.7c0-0.1,0-0.3,0-0.4v-1.2c0-0.2,0-0.4-0.1-0.6c0-0.1,0-0.2,0-0.2
		c-0.1-12.3,0.4-24.1,1.3-34.9h8l2.2,12.6l13.1,74.3l9.1,51.7c0.2,0.9,0.9,1.5,1.9,1.5c0.8,0,1.4-0.7,1.3-1.5l-6.7-50.3l-11.4-84.8
		l-0.5-3.6h26.1c4.5,0,8.2-3.7,8.2-8.2C226.1,1094.4,225.1,1092.4,223.7,1090.9z M96.8,1088.5H79.3c0,0,8-11.6,14.7-24.2
		C97.2,1075.8,97.4,1083.3,96.8,1088.5z"/>
	<g>
		<path class="st5" d="M2029,219.1v193.4c0,1.7,0,3.4-0.1,5c-0.4,15.1-2.3,26.7-4.7,26.7h-0.7c-2.2,0-4.1-10-4.6-23.5
			c0-1.1-0.1-2.2-0.1-3.4c0-0.1,0-0.2,0-0.2c0-1.5,0-3,0-4.5V218.2C2022.2,218.4,2025.6,218.7,2029,219.1z"/>
		<path class="st5" d="M2021.2,417c-37.2,0-67.4,31.9-67.4,71.2h134.7C2088.6,448.9,2058.4,417,2021.2,417z"/>
		<path class="st6" d="M2026.6,417.9c-1.9-0.4-3.9-0.6-5.9-0.6c-24.2,0-43.9,31.8-43.9,71h11.8
			C1988.6,452.3,2005.1,422.6,2026.6,417.9z"/>
	</g>
	<g>
		<path class="st5" d="M1532.3,219.1v193.4c0,1.7,0,3.4-0.1,5c-0.4,15.1-2.3,26.7-4.7,26.7h-0.7c-2.2,0-4.1-10-4.6-23.5
			c0-1.1-0.1-2.2-0.1-3.4c0-0.1,0-0.2,0-0.2c0-1.5,0-3,0-4.5V218.2C1525.6,218.4,1529,218.7,1532.3,219.1z"/>
		<path class="st5" d="M1524.6,417c-37.2,0-67.4,31.9-67.4,71.2h134.7C1591.9,448.9,1561.8,417,1524.6,417z"/>
		<path class="st6" d="M1529.9,417.9c-1.9-0.4-3.9-0.6-5.9-0.6c-24.2,0-43.9,31.8-43.9,71h11.8
			C1492,452.3,1508.5,422.6,1529.9,417.9z"/>
	</g>
	<g>
		<path class="st5" d="M562,415.5v38.7c0,1.7,0,3.4-0.1,5c0,0,0,0,0,0c-0.4,15.1-2.3,26.7-4.7,26.7h-0.7c-2.2,0-4.1-10-4.6-23.5
			c0,0,0,0,0,0c-0.1-1.1-0.1-2.2-0.1-3.4c0-0.1,0-0.2,0-0.2v0c0-1.5,0-3,0-4.5v-38.7C555.2,415.4,558.6,415.4,562,415.5z"/>
		<path class="st5" d="M554.2,458.7c-37.2,0-67.4,31.9-67.4,71.2h134.7C621.6,490.6,591.4,458.7,554.2,458.7z"/>
		<path class="st6" d="M559.6,459.6c-1.9-0.4-3.9-0.6-5.9-0.6c-24.2,0-43.9,31.8-43.9,71h11.8C521.6,494,538.2,464.3,559.6,459.6z"
			/>
	</g>
	<path class="st7" d="M2145.9,1218h570.4c-21.7,17-49,27.1-78.6,27.1H1827c-70.6,0-128.3-57.7-128.3-128.3v-417
		c0-70.6,57.7-128.3,128.3-128.3h810.8c32.9,0,63.1,12.6,85.8,33.2h-577.7c-60.3,0-109.6,49.3-109.6,109.6v394.2
		C2036.3,1168.6,2085.6,1218,2145.9,1218z"/>
	<path class="st8" d="M2160.3,1218h564.3c-21.5,17-48.5,27.1-77.7,27.1h-802c-69.8,0-126.9-57.7-126.9-128.3v-417
		c0-70.6,57.1-128.3,126.9-128.3h802c32.6,0,62.4,12.6,84.9,33.2h-571.5c-59.6,0-108.4,49.3-108.4,109.6v394.2
		C2051.9,1168.6,2100.6,1218,2160.3,1218z"/>
	<path class="st9" d="M2442.9,288.5H1326c20.4-22.7,40.7-47.4,60.6-74.2c0.4-0.5,0.8-1,1.2-1.5c6.3-8.4,12.9-16.4,19.8-24.2h941
		c9.6,7.8,18.9,15.9,27.8,24.2C2401.4,235.9,2423.8,261.2,2442.9,288.5z"/>
	<g>
		<path class="st10" d="M1540.2,1015c1.3-33,4.2-61.6,7.7-81.6c5.5-31.9,10.5-50.2,10.5-50.4c0.7-2.8,11.2-14.1,34.5-13.8
			s21.1,15.2,21.1,15.2l0,0c0,0.5-0.1,1-0.2,1.3c-0.2,0.8-21.6,78.4-20.7,178.6c0,1.4,0.2,3.8,0.1,5.5c0,0-54,1.4-54,0
			C1537.3,1061,1538.2,1036.8,1540.2,1015z"/>
		<path class="st11" d="M1533.4,1063.8c0,1.4,0.8,2.5,1.7,2.5h0c0.9,0,1.6-1.1,1.6-2.5h46.3c0,1.4,0.8,2.5,1.7,2.5h0
			c0.9,0,1.6-1.2,1.6-2.6c-0.3-28.7,1.4-55.5,3.8-79.1c6.2-58.9,17.5-98.3,17.7-98.9c0.1-0.4,0.2-0.8,0.2-1.3
			c0,0,2.2-14.9-21.1-15.2c-23.3-0.4-33.8,11-34.5,13.8c0,0.1-2.9,10.5-6.6,29.2c-1.2,6.2-2.6,13.3-3.9,21.2
			c-3.5,20-6.3,48.7-7.7,81.6C1532.2,1036.8,1531.5,1055.1,1533.4,1063.8z"/>
		<path class="st12" d="M1533.4,1063.8c0,1.4,0.8,2.5,1.7,2.5h0c0.9,0,1.6-1.1,1.6-2.5h46.3c0,1.4,0.8,2.5,1.7,2.5h0
			c0.9,0,1.6-1.2,1.6-2.6c-0.3-28.7,1.4-55.5,3.8-79.1c-7.7-37.4-37.2-66-44.4-72.4c-1.2,6.2-2.6,13.3-3.9,21.2
			c-3.5,20-6.3,48.7-7.7,81.6C1532.2,1036.8,1531.5,1055.1,1533.4,1063.8z"/>
		<g>
			<path class="st10" d="M1580.1,1063.3h-0.1l-0.1-0.1c-0.1-0.1-0.1-0.1-0.1-0.2v0c0,0,0-0.1,0-0.1c-0.1-1.9-3.9-2.2-10.1-2.2
				c-1.4,0-2.9,0-4.4,0c-1.8,0-3.7,0-5.6,0c-5.9,0-13.6-0.2-21.4-1.5c-5-0.9-1.6-39.1,1.9-75c0.6-6.1,1.1-10.9,1.3-13.7
				c2.3-30,15.6-84.5,15.7-85c0.6-2.2,8.6-10.7,25.9-10.4c6.5,0.1,11.1,1.7,13.8,4.8c2.7,3.2,2.2,6.7,2.2,6.8c0,0.3,0,0.7-0.1,1
				c-0.1,0.3-12,70.2-14,87c-3.3,28.6-4.6,87.2-4.6,88.1c0,0,0,0.1,0,0.1l0,0.3L1580.1,1063.3z M1569.7,1060.1
				c5.4,0,8.9,0.3,10.1,1.6c0.2-8.6,1.5-60.6,4.5-87c2-17.2,14-86.9,14-87.1c0.1-0.2,0.1-0.6,0.1-0.9c0-0.1,0.5-3.5-2.1-6.5
				c-2.5-3-7-4.5-13.4-4.6c-0.3,0-0.5,0-0.8,0c-16.5,0-24.1,7.9-24.6,10.1c-0.1,0.5-13.4,54.5-15.7,84.9c-0.2,2.8-0.7,7.6-1.3,13.7
				c-2.4,23.9-7.3,73.5-2.4,74.4c7.7,1.3,15.4,1.5,21.3,1.5c2,0,3.9,0,5.6,0C1566.9,1060.1,1568.4,1060.1,1569.7,1060.1z"/>
		</g>
		<path class="st11" d="M1589.7,1066.3h-181.5c0,0,4.2-17.1,109.4-14.6C1592,1053.6,1589.7,1066.3,1589.7,1066.3z"/>
		<g>
			<path class="st10" d="M1604.5,1245c-21-106.6-15.6-171.9-15.6-172.8c0.1-1.6-3-3.1-4.6-3.2c-1.6,0-8.9-0.5-9.8,0.9
				c-1.1,1.8-5.3,82.4,26,175H1604.5z"/>
		</g>
		<g>
			<path class="st10" d="M1435,1245c21-106.6,15.6-171.9,15.6-172.8c-0.1-1.6,3-3.1,4.6-3.2c1.6,0,8.9-0.5,9.8,0.9
				c1.1,1.8,5.3,82.4-26,175H1435z"/>
		</g>
		<g>
			<path class="st13" d="M1401.4,1245c21-106.6,15.6-171.9,15.6-172.8c-0.1-1.6,3-3.1,4.6-3.2c1.6,0,8.9-0.5,9.8,0.9
				c1.1,1.8,5.3,82.4-26,175H1401.4z"/>
		</g>
		<g>
			<path class="st13" d="M1570.7,1245c-21-106.6-15.6-171.9-15.6-172.8c0.1-1.6-3-3.1-4.6-3.2c-1.6,0-8.9-0.5-9.8,0.9
				c-1.1,1.8-5.3,82.4,26,175H1570.7z"/>
		</g>
		<path class="st10" d="M1408.1,1071.8h181.5c2,0,3.7-1.7,3.7-3.7v-2.4c0-2-1.7-3.7-3.7-3.7h-181.5c-2,0-3.7,1.7-3.7,3.7v2.4
			C1404.4,1070.1,1406.1,1071.8,1408.1,1071.8z"/>
	</g>
	<g>
		<g>
			<path class="st14" d="M1373.4,908.1c-7.7-4.5-11.5-8.1-17.2-8.9c-5.6-0.8-15.8-1.4-17.2-3.6c-3.5-5.2-7.1-15.5-4.6-14.8
				c2.6,0.7,12.2,7.3,15.2,6.3c3-1-4.6-3.5-2.8-5c1.9-1.6,10.2,2.2,12.2,6.5c0.7,1.5,24.6,8.9,24.6,8.9L1373.4,908.1z"/>
			<path class="st14" d="M1482.5,1180.4c1.5,1.7,1.7,3.7,1,5.7c0,0,0,0,0,0c-1.4,3.8-6,8.1-11.3,12.4c-0.7,0.5-1.3,1-1.8,1.5
				c-0.1,0.1-0.3,0.2-0.4,0.4c-0.1,0.1-0.2,0.2-0.3,0.3c-5,4.6-3.1,5.6-12,14.9c-10.1,10.5-17.1,10.7-19.1,9.8
				c-1.7-0.8,1.7-6.4,5.5-12.7c0.2-0.3,0.4-0.6,0.6-0.9c0.5-0.8,1-1.7,1.5-2.5c4.4-7.6,3.3-11.1,2.2-22.4
				c-0.9-9.2-14.2-51.1-14.2-51.1l19.4-3.3c0,0,5.9,33.4,12.3,38.6c3.4,2.7,7.3,2.8,10.6,4.8c0.2,0.1,0.5,0.3,0.7,0.4
				C1479.1,1177.4,1481,1178.7,1482.5,1180.4z"/>
			<path class="st15" d="M1482.5,1180.4c1.5,1.7,1.7,3.7,1,5.7c0,0,0,0,0,0c-1.7,3.8-6.1,8.1-11.3,12.3c-0.7,0.6-1.3,1.1-1.8,1.5
				c-0.1,0.1-0.3,0.2-0.4,0.4c-0.1,0.1-0.2,0.2-0.3,0.3c-5,4.6-3.1,5.6-12,14.9c-10.1,10.5-17.1,10.7-19.1,9.8
				c-1.7-0.8,1.7-6.4,5.5-12.7c2-0.7,11.1-4.4,18.1-13.3c6.1-7.8,10.2-17.8,14.3-23.6c0.2,0.1,0.5,0.3,0.7,0.4
				C1479.1,1177.4,1481,1178.7,1482.5,1180.4z"/>
			<path class="st14" d="M1325.8,1168.3c-1.2,6-9.7,5-19.3,2.7c-9.6-2.3-7.3,0.4-20.9-1.1c-13.6-1.5-17.7-6.6-18.1-8.6
				c-0.4-1.8,6.3-2.4,13.6-3.3c0.9-0.1,1.8-0.2,2.7-0.3c8.1-1,14.1-6.3,21.5-10.6c7-4.1,17.4-20.7,17.4-20.7l18.6,1.5
				c0,0-9.8,14.9-13.6,21.3c-2.2,3.8-2.1,8.8-1.8,12.7C1326.1,1164,1326.3,1166.2,1325.8,1168.3z"/>
			<path class="st15" d="M1306.5,1170.9c-9.6-2.3-7.3,0.4-20.9-1.1c-13.6-1.5-17.7-6.6-18.1-8.6c-0.4-1.8,6.3-2.4,13.6-3.3l0.1,0.1
				c0,0,8.2,5.8,19.5,6.1c9.2,0.2,19-2.4,25.4-2.3c0.1,2.1,0.3,4.3-0.1,6.4C1324.6,1174.3,1316.1,1173.3,1306.5,1170.9z"/>
			<path class="st16" d="M1397.3,1049.1l40.2,108.1c0,0,6.2,0.6,12.1-1.1c5.4-1.6,11.7-5.7,11.7-5.7s-10-103.8-28.2-125.4
				C1414.7,1003.4,1397.3,1049.1,1397.3,1049.1z"/>
			<path class="st15" d="M1556.2,1005.3c0,0-115.5-39-141.2-30.7c-25.8,8.3-103.1,162.1-103.1,162.1s1.7,2.3,6.5,4.1
				c4.4,1.7,15.2,1.6,15.2,1.6s69.8-59.8,78.1-77.2c8.3-17.4,11.6-34.1,19.9-32.4c8.3,1.7,107.2,40.7,129.6,17.4
				c22.4-23.3,16.6-53.5,16.6-53.5L1556.2,1005.3z"/>
			<path class="st17" d="M1485.6,823.7c-1.8-3.8-3.9-10.6-4.9-22.6c0.2,1.2,2.2,16.4,8.1,25c24,15.8,70,68.4,69.1,78.4
				c0,0,16.2-27.5,16.5-27.7c0,0,29.9-38-5.5-59.8c-18-11.1-17.9-25.3-17.2-37.6c0.8-12.3-4.9-65.5-41-51.6c0,0-5.8-2.6-8.4-2.2
				c0,0,2.1,0.4,3.2,1.5c-4.2-0.2-10.2,0.1-15.2,2.9C1477.2,737.5,1465.3,805,1485.6,823.7z"/>
			<path class="st14" d="M1490.2,826.9c-0.1,0.1,11.6,6.1,20.4,3.7c8.3-2.3,13.7-13,13.6-13c-3.5-0.7-4.5-5.5-4.4-26.2l-1.6,0.3
				l-26.7,5.3c0,0,0.6,8.4,0.6,16.3C1492.2,819.9,1491.8,826.2,1490.2,826.9z"/>
			<path class="st18" d="M1491.5,796.9c0,0,0.6,8.4,0.6,16.3c14.9-0.4,22.8-14,26.1-21.6L1491.5,796.9z"/>
			<path class="st17" d="M1520.9,788.7c0,0,7.8-12.4,9.7-22.9c1.3-7.5-2.5-35.5-30.6-31.5c0,0-8.2,0.8-15.8,6
				c-6.1,4.1-14.9,13-5.1,37.4l2.6,8.2L1520.9,788.7z"/>
			<path class="st14" d="M1486.5,804.4c0,0,35.3,0.6,35.3-21.4c0-22,4.6-36.7-18-38c-22.6-1.3-26.9,7.1-28.7,14.4
				C1473.4,766.7,1477.3,803.7,1486.5,804.4z"/>
			<path class="st17" d="M1487.8,744.4c0,0,9.7,25.8,24.5,29.6c14.8,3.8,21.3-0.2,21.3-0.2s-11.4-9-13.7-24.8
				C1519.9,749,1495.1,732.1,1487.8,744.4z"/>
			<path class="st17" d="M1490.2,746.5c0,0-7.2,5.8-9,11.4c-1.8,5.6-2.6,17.1-5.9,16.7c0,0-7.3-17.5,0.9-27.5
				C1484.9,736.6,1490.2,746.5,1490.2,746.5z"/>
			<path class="st19" d="M1568.9,921.9c3.5-14.6-8.4-43-20.7-66.4c-11.2-21.3-22.9-38.5-23.9-37.9c-29.6,17.6-32.3,3-32.3,3
				s-26.9,3.6-34.5,16.7c-10.5,18.1-22,72.5-33.3,71.7c-5.2-0.4-57.2-19.9-57.2-19.9s-8.7,8.1-7,18.1c0,0,25.7,17.2,47.4,28.2
				c11.5,5.8,21.9,9.9,26.8,8.7c9.9-2.3,25.4-25.3,33.7-38.8c0,0,0-0.1,0.1-0.1c10.7,60.4-3.8,74.1,3.5,80.5
				c7.8,6.7,18.8-3.2,43.2,7.4c16,6.9,38.2,17,53.1,18.7c7.8,0.9,13.7-0.4,15.6-5.7C1588.8,990.6,1562.2,949.7,1568.9,921.9z"/>
			<path class="st20" d="M1494.4,791.1c0,0-0.7,2.8-7.6,2.4c0,0-5.8-0.4-5.7-3.4C1481.1,790,1486.8,787.8,1494.4,791.1z"/>
			<path class="st21" d="M1583.3,1005.9c-1.9,5.3-7.7,6.7-15.6,5.7c-10.3-4.5-55-21.8-54.5-33.5c0.7-17.4,8.6-17.9,3-39.3
				c-4.4-17.2,36.8-49.2,43.4-56.1c12.4,23.5,12.7,24.6,9.2,39.2C1562.2,949.7,1588.8,990.6,1583.3,1005.9z"/>
			<path class="st21" d="M1467.9,905.2c-8.4,13.5-23.8,36.5-33.7,38.8c-4.9,1.2-15.3-2.9-26.8-8.7c8.4,2.2,16.5,2.1,24.5,1.3
				c8.6-0.8,11.1-11.4,24.6-27.1C1465.3,899.2,1467.4,901.8,1467.9,905.2z"/>
			<path class="st14" d="M1509.2,938.4c0,0-7.5-5.8-14.5-4.4c-7.1,1.4-10.5,6.2-10.2,8.4c0.3,2.2,4,8.4,9.4,9s20.8-3.3,20.8-3.3
				L1509.2,938.4z"/>
			<path class="st19" d="M1524.2,817.6c0,0,28.8,1.8,38.8,15.7c14,19.6,38.4,99.5,31.8,117.7l-87.6-0.4c0,0-2.1-9.9,0.8-14.7
				c3-4.8,50.9-12.6,53.2-14.8c2.2-2.2-27.7-43.2-27.7-49.8S1524.2,817.6,1524.2,817.6z"/>
		</g>
		<g>
			<g>
				<polygon class="st22" points="1496.8,971.7 1390.7,971.7 1371.6,905.1 1477.5,905.1 				"/>
				<rect x="1391.1" y="969.1" class="st23" width="138.6" height="2.6"/>
			</g>
			<path class="st23" d="M1424.4,937.3c-0.7-2.3,0.7-4.2,3-4.2s4.8,1.9,5.5,4.2c0.7,2.3-0.7,4.2-3,4.2S1425.1,939.7,1424.4,937.3z"
				/>
		</g>
		<g>
			<g>
				<polygon class="st15" points="1187.3,971.7 1293.3,971.7 1312.4,905.1 1206.6,905.1 				"/>
				
					<rect x="1154.3" y="969.1" transform="matrix(-1 -1.224647e-16 1.224647e-16 -1 2447.2754 1940.8599)" class="st15" width="138.6" height="2.6"/>
			</g>
			<path class="st16" d="M1259.6,937.3c0.7-2.3-0.7-4.2-3-4.2c-2.3,0-4.8,1.9-5.5,4.2c-0.7,2.3,0.7,4.2,3,4.2
				C1256.5,941.6,1259,939.7,1259.6,937.3z"/>
		</g>
	</g>
	<g>
		<path class="st14" d="M1216.2,852.3c0,0,10.8-8.8,14.6-8.8c3.9,0,11.2-2,10.9-0.7c-0.3,1.3-6.5,2.9-5.4,3.5
			c1.1,0.6,10.1-1.8,12.6-0.4c2.5,1.5,8.4,7.4,3.7,10.1c-4.7,2.6-19,6.8-22.6,6.3c-3.7-0.5-12-1.1-12-1.1L1216.2,852.3z"/>
		<polygon class="st14" points="1078.8,1179.5 1087.8,1217.5 1101.3,1217.4 1101.8,1179.5 		"/>
		<polygon class="st14" points="1192.5,1181.1 1218.6,1217 1228.2,1204.7 1212.8,1176.1 		"/>
		<path class="st23" d="M1139.9,721.3C1139.9,721.3,1139.9,721.3,1139.9,721.3c0-0.1,0-0.2,0-0.3c-0.2-1.9-0.4-3.8-0.6-5.6
			c0,0,0,0,0,0c-0.8-5.7-1.9-11.2-3.2-16.1c-0.8-2.8-1.6-5.4-2.6-7.8c-0.1-0.4-0.3-0.7-0.4-1.1l0,0c-2.2-5.4-4.7-9.2-7.3-10.7
			c-4.7-2.7-10.3-2.9-14.2-2.7c1-1,3-1.4,3-1.4c-2.4-0.4-7.8,2-7.8,2c-33.8-13-39.1,36.7-38.3,48.2c0.7,11.5-11.3,15.3-28.9,24.4
			c-33.5,17.4-36.4,40.6-36.4,40.6c0.3,0.2,0.5,0.3,0.8,0.5c1.7-2.8,5.1-8.1,8-8.9c-0.1,0.3-3.4,7.3-4.6,11.3
			c4.2,3.2,10,8.1,16.3,13.6c0,0,0,0,0,0c8.4,7.3,17.6,15.7,25,22.4c-0.1-2.3,0-5.6,0.9-7.3l1.4,8.5l0.2,1.1
			c4.7,4.3,8.4,7.8,10.3,9.5c0.2,0.2,0.4,0.3,0.5,0.5c0.5,0.5,0.8,0.8,0.8,0.8c-0.3-3,3.9-10,10.4-18.6c0.4-0.6,0.9-1.2,1.4-1.8
			c2.1-2.7,4.4-5.6,6.9-8.5c0.9-1.1,1.8-2.1,2.7-3.2c0,0,0,0,0,0c0.7-0.9,1.5-1.7,2.3-2.6l0,0c1.8-2.1,3.7-4.2,5.6-6.2
			c5-5.4,10.1-10.7,15.2-15.5c7.3-7,14.4-13,20.2-16.8c0.2-0.3,0.4-0.6,0.6-1c1.1-1.7,2-3.7,2.8-5.7c0.2-0.6,0.5-1.2,0.7-1.8
			c2.3-6.5,3.3-13,3.5-14.6c-0.5,6.5-1.4,11.3-2.4,14.9c-0.2,0.8-0.4,1.5-0.7,2.2v0c-0.5,1.5-1,2.8-1.5,3.8c1-0.9,1.9-1.9,2.7-3.1
			c0.5-0.7,1.1-1.5,1.5-2.4C1140,752.2,1141.2,736.5,1139.9,721.3z"/>
		<path class="st14" d="M1125.9,770.4c0.1,0.1-10.8,5.7-19.1,3.5c-7.8-2.1-12.8-12.2-12.7-12.2c3.3-0.7,4.2-5.2,4.2-24.6l1.5,0.3
			l25,4.9c0,0-0.6,7.9-0.6,15.3C1124.1,763.8,1124.4,769.7,1125.9,770.4z"/>
		<path class="st24" d="M1097.6,688c0,0,12.3-13.1,27.8-0.7C1125.4,687.3,1116.4,685.7,1097.6,688z"/>
		<path class="st18" d="M1124.7,742.4c0,0-0.6,7.9-0.6,15.3c-14-0.4-21.3-13.1-24.4-20.2L1124.7,742.4z"/>
		<path class="st23" d="M1097.1,734.7c0,0-7.3-11.6-9.1-21.5c-1.3-7.1,2.3-33.2,28.6-29.5c0,0,7.6,0.8,14.8,5.6
			c5.7,3.9,13.9,12.2,4.7,35l-2.4,7.7L1097.1,734.7z"/>
		<path class="st25" d="M1224.1,1194.7l-13.2,0.4l-14.3,0.4c0,0-33.1-36.8-51.6-95.9c-0.4-1.4-0.9-2.8-1.4-4.2
			c-10.2-29.6-31.2-66.8-42.3-100.4c-1.8-5.4-3.4-10.4-4.8-15.2c-0.5-1.5-0.9-3-1.3-4.5c-8.2-28.4-10.5-47-12.7-67l80.1,0.6
			C1162.6,909.1,1175.5,1045.1,1224.1,1194.7z"/>
		<path class="st26" d="M1151.4,863.1c-0.2,38.1,5.6,54.5,5.6,54.5s-34.3,17.4-75.1,4.6c-0.5-0.2-33.7-7.7-33.7-7.7
			c0.7-1.5,6.7-27.2,7.4-28.6c8.6-18.5,15.1-26.6,16.2-32.3c1.9-10.6,1.9-21.6,1-31.9c-2.5-27.4-9.9-50.1-9.9-50.1
			c11.1-2.5,21.8-6.8,33.3-11.2c2.7,3.3,10.5,6.6,17.6,6.5c8.1-0.2,10.8-3.7,10.3-7.4c8.7,4.8,15.6,9.4,15.6,9.4
			c7.4,12.8,22.3,25.2,23.3,44.8C1163.2,818.2,1151.4,862,1151.4,863.1z"/>
		<path class="st14" d="M1129.3,749.4c0,0-33,0.5-33.1-20c0-20.6-4.3-34.4,16.8-35.6c21.1-1.2,25.2,6.6,26.9,13.5
			C1141.6,714.1,1137.9,748.7,1129.3,749.4z"/>
		<path class="st23" d="M1128.1,693.3c0,0-9,24.1-22.9,27.7c-13.9,3.6-19.9-0.1-19.9-0.1s10.6-8.5,12.9-23.2
			C1098.1,697.6,1121.3,681.8,1128.1,693.3z"/>
		<path class="st23" d="M1125.9,695.2c0,0,6.8,5.4,8.4,10.6c1.6,5.2,2.4,16,5.5,15.7c0,0,6.8-16.4-0.8-25.7
			C1130.8,686,1125.9,695.2,1125.9,695.2z"/>
		<path class="st14" d="M1087.3,1215.4c0,0,1.1,7.5-1.7,15.6c0,0-2.2,10.1,7.7,10.3c9.9,0.2,12.4-0.7,11.2-6.9
			c-1.1-6.2-3.3-16.9-3.3-16.9L1087.3,1215.4z"/>
		<path class="st27" d="M1105.9,1247.2h-21.8c-0.9-4.5,1.1-14,1.4-15.8c0-0.1,0-0.2,0.1-0.3c0-0.1,0-0.1,0-0.1
			c11.2,10.3,18.3-0.3,18.3-0.3c0,0,0,0,0,0.1C1105.6,1234.8,1105.9,1245.7,1105.9,1247.2z"/>
		<path class="st14" d="M1252.1,1235.3c0,0-18.3-20.3-23.9-30.7l-13.6,7l30.4,28.6l7.1-0.9L1252.1,1235.3z"/>
		<path class="st27" d="M1263.8,1247.2c0,0-22.7,0-23,0c-3.4,0-6.1-5.6-9.8-12.9c-1.5-3-4.9-4.6-8.3-5.5l0.1,18.5h-5.3l-4.9-19.5
			c-3.2-6-0.3-11.4,2-16.1c2.7,0,9.8,1.8,23.3,17.1c4.4,5,9.4,6.8,14.2,6.6c0.1,0,0.1,0.1,0.2,0.1
			C1263.6,1240.5,1263.8,1247.2,1263.8,1247.2z"/>
		<path class="st28" d="M1210.9,1195.1l-14.3,0.4c0,0-33.1-36.8-51.6-95.9c-0.4-1.4-0.9-2.8-1.4-4.2
			c-10.2-29.6-31.2-66.8-42.3-100.4c-1.8-5.4-3.4-10.4-4.8-15.2c-0.5-1.5-0.9-3-1.3-4.5l11.8-8.9c0,0,35.4,57.3,46.4,111.3
			C1162.9,1124.6,1201,1181.1,1210.9,1195.1z"/>
		<path class="st25" d="M1108.2,1082.8c0.2,26.2-1.1,86.6-4.5,111.6H1091c-7,0-10.5-0.1-10.5-0.1c-8.6-43.4-14.7-79.4-19.1-110.3
			c-3.6-25.4-6.9-47.2-9.4-66c-2.5-18.9-4.3-34.7-4.9-48c-0.1-2.1-0.2-4.1-0.2-6.1c0-2-0.1-3.9,0-5.8l69.2-6.7
			C1115.2,997.2,1108.1,1067.5,1108.2,1082.8z"/>
		<path class="st28" d="M1091,1194.4c-7,0-10.5-0.1-10.5-0.1c-8.6-43.4-14.7-79.4-19.1-110.3c-3.6-25.4-6.9-47.2-9.4-66
			c-2.5-18.9-4.3-34.7-4.9-48l25.4,14.9c0,0-16.2,5.7-10,49C1068.7,1077.2,1082.4,1188.2,1091,1194.4z"/>
		<path class="st5" d="M1094.3,969.5c0,0-4.9,17.6-21.7,15.4c-16.9-2.2-40.8-12.4-40.8-12.4s7.2-22.8,16.2-52.7
			c10.9-36.2,13.6-87.1,19.9-116.6c1.8-8.3,13.7-10.9,14.2-15.9l14.3-27.1c0,0,20.6,46.8,21.7,58.6
			C1119,830.6,1094.3,969.5,1094.3,969.5z"/>
		<path class="st29" d="M1082.5,853.6c-0.8,19.1-7.4,51.7-34.3,66.1c-0.1,0.1-0.2,0.1-0.3,0.2c10.9-36.2,10.7-71,17-100.4
			C1079.3,816.4,1082.9,843.1,1082.5,853.6z"/>
		<g>
			<path class="st27" d="M1257,842.2h-25.9c0,0.1,0,0.6-0.1,1.3c-0.1,2.3-0.3,6.9-0.2,7.4c0.4,5.5,4.2,8.5,7.9,10h0c0,0,0,0,0.1,0
				c0.9,0.3,1.7,0.6,2.6,0.8c0.6,0.1,1.2,0.2,1.7,0.3c0.4,0,0.7,0.1,1,0.1c1.9,0,3.7-0.4,5.3-1.1c4.6-2,7.8-6.6,7.8-11.9v-5.1
				C1257.1,843.3,1257.1,842.7,1257,842.2z"/>
			<path class="st24" d="M1254.9,842.2h-3.5c0.1,0.5,0.1,1.1,0.1,1.6v5.1c0,3.5-1.4,6.8-3.7,9.1c-1.1,1.2-2.5,2.1-4,2.8
				c-0.8,0.3-1.6,0.6-2.4,0.8c-0.4,0.1-0.7,0.1-1.1,0.2c0.6,0.1,1.2,0.1,1.8,0.1c0.4,0,0.7,0,1.1-0.1c1.5-0.1,2.9-0.5,4.2-1.1
				c2.4-1.1,4.5-2.9,5.8-5.2c0,0,0,0,0,0c0.5-0.9,1-1.9,1.3-2.9c0.4-1.2,0.6-2.5,0.6-3.8v-5.1C1255,843.3,1254.9,842.7,1254.9,842.2
				z"/>
			
				<rect x="1238.7" y="860.8" transform="matrix(-1 -1.224647e-16 1.224647e-16 -1 2488.0833 1723.231)" class="st27" width="10.7" height="1.6"/>
		</g>
		<path class="st5" d="M1219.6,847.6c0,0-37.1,12.4-41.8,11.3c-4.6-1-11.3-51.3-14.9-68.6c-4.6-22.2-22.2-26.6-22.2-26.6l-16.7-4.5
			c0,0,19.1,47.2,19.7,56.8c0.6,9.6,2.2,156.3,2.2,156.3s-1.1,6.7,11.8,3.9c12.9-2.8,16.3-5.6,16.3-5.6s-5.6-41-8.2-77.4
			c13.2-2.3,55.5-23.7,55.5-23.7C1228,859.2,1219.6,847.6,1219.6,847.6z"/>
		<path class="st14" d="M1052.6,897.3c0,0,14.6-2.6,18.2,1c3.6,3.6,8.6,18.9,4.5,19.8c-4.1,0.9-13.8-9.6-16.2-8.8
			c-2.4,0.9-6.8,2.2-7.8-0.1s-8.3-9.1-8.3-9.1L1052.6,897.3z"/>
		<path class="st14" d="M1063.2,893.6c0,0-8.9,3.9-10.7,3.8c-1.7-0.1,3.8,3.4,3.8,3.4l2.8-2.6C1059.1,898.1,1064,896.6,1063.2,893.6
			z"/>
		<path class="st5" d="M1096.2,760.2c0,0-32.5,1.4-40.3,8.7c-7.8,7.3-54.6,63.3-55.4,78c-0.8,14.7,41,56.5,41,56.5
			s11.6-2.8,16.6-10.1c0,0-25.9-46.2-24.4-48.2c1.5-2,45.4-38,49-30C1085.9,821.9,1096.2,760.2,1096.2,760.2z"/>
	</g>
	<g>
		<g>
			<g>
				<path class="st30" d="M1083.3,986.2l-7.4,41.8v0l-20.4,115.6l-18.2,103.3c-0.3,1.6-1.7,2.7-3.3,2.7c-1.4,0-2.5-1.2-2.4-2.6
					l15.7-117.1l16.8-125.3l2.5-18.9L1083.3,986.2z"/>
			</g>
			<path class="st13" d="M1075.9,1028.1c1-18-11.7-23.4-11.7-23.4l2.5-18.9l16.6,0.5L1075.9,1028.1z"/>
		</g>
		<g>
			<g>
				<path class="st30" d="M1652.6,1249.6c-1.6,0-3-1.1-3.3-2.7l-16.2-91.8l-23.3-132l-6.5-36.9l16.6-0.5l2.9,21.4l20.2,150.6
					l12,89.3C1655.1,1248.4,1654,1249.6,1652.6,1249.6z"/>
			</g>
			<path class="st13" d="M1622.8,1007.2c-10.7,4.7-13,16-13,16l-6.5-36.9l16.6-0.5L1622.8,1007.2z"/>
		</g>
		<path class="st31" d="M1652.2,1000.7H999c-6.9,0-12.5-5.6-12.5-12.5v-4c0-6.9,5.6-12.5,12.5-12.5h653.2c6.9,0,12.5,5.6,12.5,12.5
			v4C1664.7,995.1,1659.1,1000.7,1652.2,1000.7z"/>
	</g>
	<g>
		<path class="st5" d="M2115.9,1173.3c-6.4,23.1-53.6,36.7-105.2,44.6h-192.6c-46.4-22-46.4-48.2-50.1-120.6
			c-7.7-149.5,73.6-221.7,109.9-209.8c1.5,0.5,3,1,4.6,1.6c10.5,4.1,22.3,11.3,33.8,28.6c0,0,36.1,58.1,65.7,92.8
			c9.6,11.2,18.4,19.9,25.2,23.5c0.1,0,0.2,0.1,0.2,0.1c0.4,0.2,0.7,0.4,1.1,0.5c15.7,7,37.9,21.5,58.1,39.9c0,0,0,0,0,0
			C2098.1,1103.1,2124.9,1140.8,2115.9,1173.3z"/>
		<path class="st29" d="M2066.7,1074.6c-27,8-166,46.8-198.7,5.7c-23.7-29.8-8.9-106.1,4.1-155.5c5.4-20.2,32.1-24.8,43.8-7.5
			c0.1,0.2,0.2,0.3,0.3,0.5c0,0,36.1,58.1,65.7,92.8c8.6,10.9,17,19.4,25.2,23.5c0.1,0,0.2,0.1,0.2,0.1c0.4,0.2,0.7,0.4,1.1,0.5
			C2024.3,1041.6,2046.5,1056.2,2066.7,1074.6z"/>
		<g>
			<path class="st32" d="M1991.1,936.5c0,0,7.9,11.7,12.4,36.3c3.9,21.5,7.4,29.5,13.1,33.9c5.7,4.4,37.4,17.4,37.4,17.4l-2.4,5.6
				c0,0-46.5-6.3-51.7-14.1c-5.2-7.8-25.1-53.7-23.6-64.3C1977.9,940.6,1991.1,936.5,1991.1,936.5z"/>
			<g>
				<path class="st14" d="M2105,1193.1c-0.4,4.5,5.9,5.6,13.2,6c7.3,0.4,5.1,1.9,15.1,3.7c10,1.8,14-0.9,14.8-2.3
					c0.6-1.2-4-3.1-9-5.2c-0.6-0.3-1.3-0.5-1.9-0.8c-5.6-2.5-8.7-7.5-13.1-12.1c-4.1-4.4-8-18.5-8-18.5l-13.6-2.9
					c0,0,3.8,12.7,5.2,18.1c0.8,3.2-0.4,6.7-1.4,9.5C2105.8,1190,2105.2,1191.5,2105,1193.1z"/>
				<path class="st15" d="M2118.3,1199.1c7.3,0.4,5.1,1.9,15.1,3.7c10,1.8,14-0.9,14.8-2.3c0.6-1.2-4-3.1-9-5.2l-0.1,0.1
					c0,0-7,2.4-15.2,0.2c-6.6-1.8-13-5.8-17.6-7c-0.6,1.5-1.1,3-1.3,4.6C2104.6,1197.6,2110.9,1198.7,2118.3,1199.1z"/>
			</g>
			<path class="st23" d="M1969.4,1031.5c0,0,90.5-6.8,107.6,3.9c17,10.8,44.4,136.1,44.4,136.1s-1.7,1.4-5.5,1.8
				c-3.5,0.4-11.2-1.7-11.2-1.7s-39.3-56.1-42.1-70.2c-2.8-14.1-2.1-26.7-8.4-27.1s-84.8,9.5-96.7-11.4
				c-11.9-20.9-2.1-41.7-2.1-41.7L1969.4,1031.5z"/>
			<g>
				<path class="st14" d="M2070.4,1207.6c-0.4,4.5,5.9,5.6,13.2,6c7.3,0.4,5.1,1.9,15.1,3.7c10,1.8,14-0.9,14.8-2.3
					c0.6-1.2-4-3.1-9-5.2c-0.6-0.3-1.3-0.5-1.9-0.8c-5.6-2.5-8.7-7.5-13.1-12.1c-4.1-4.4-8-18.5-8-18.5l-13.6-2.9
					c0,0,3.8,12.7,5.2,18.1c0.8,3.2-0.4,6.7-1.4,9.5C2071.1,1204.5,2070.6,1206,2070.4,1207.6z"/>
				<path class="st15" d="M2083.6,1213.6c7.3,0.4,5.1,1.9,15.1,3.7c10,1.8,14-0.9,14.8-2.3c0.6-1.2-4-3.1-9-5.2l-0.1,0.1
					c0,0-7,2.4-15.2,0.2c-6.6-1.8-13-5.8-17.6-7c-0.6,1.5-1.1,3-1.3,4.6C2070,1212.2,2076.3,1213.3,2083.6,1213.6z"/>
			</g>
			<path class="st22" d="M1951.6,1037.2c0,0,80.4,3.8,97,15.2s39.1,137.7,39.1,137.7s-1.7,1.3-5.5,1.5c-3.5,0.2-11.1-2.1-11.1-2.1
				s-37.1-57.5-39.3-71.8c-2.2-14.2-1-26.8-7.3-27.4c-6.3-0.6-85.2,6.2-96.2-15.1C1917.2,1053.8,1951.6,1037.2,1951.6,1037.2z"/>
			<path class="st17" d="M1980.3,860.2c-3.6-2.4-8-2.9-11.1-2.9c0.9-0.8,2.5-1,2.5-1c-1.9-0.4-6.3,1.2-6.3,1.2
				c-26.1-12.1-33,27.1-33,36.3c-0.1,9.2-0.7,19.8-14.6,27.1c-27.4,14.4-7.1,44.2-7.1,44.2c0.2,0.1,10.9,21.4,10.9,21.4
				c-0.2-7.5,36.6-44.3,55.3-54.8c4.8-6.1,7.1-17.3,7.2-18.2c-1.3,8.9-3.2,13.8-4.8,16.6C1995.2,917.1,1989.8,866.4,1980.3,860.2z"
				/>
			<path class="st14" d="M1976.2,926.3c-0.5-0.2-1-0.4-1.6-0.6c0-1.2,0.1-2.5,0.2-3.7c0.4-5.9,1.3-12.1,1.3-12.1l-19.6-5.2l-1.2-0.3
				c-0.5,8.6-2.3,14.5-3.8,18.5c-2,0.1-3.3,0.2-3.3,0.2c-0.3,1.2,8.3,19.1,19.7,19.5C1971.7,942.7,1982,928.7,1976.2,926.3z"/>
			<path class="st32" d="M1976.1,909.8c0,0-0.9,6.2-1.3,12.1c-11.1-1.1-16.3-11.6-18.3-17.3L1976.1,909.8z"/>
			<path class="st17" d="M1954.7,902.3c0,0-5.2-9.6-6.1-17.5c-0.6-5.7,3.6-26.3,24.3-21.9c0,0,6,1,11.5,5.2
				c4.3,3.4,10.4,10.4,1.9,28.1l-2.3,6L1954.7,902.3z"/>
			<path class="st14" d="M1979.5,915.6c0,0-26.3-1.3-25.2-17.7c1.1-16.4-1.6-27.5,15.2-27.4c16.8,0.1,19.7,6.6,20.6,12.1
				C1991.1,888.3,1986.3,915.6,1979.5,915.6z"/>
			<path class="st17" d="M1981.5,871c0,0-8.5,18.7-19.7,20.8c-11.2,2.1-15.8-1.2-15.8-1.2s8.9-6.2,11.4-17.8
				C1957.4,872.8,1976.7,861.5,1981.5,871z"/>
			<path class="st17" d="M1979.6,872.4c0,0,5.1,4.6,6.1,8.9c1,4.3,1,12.9,3.6,12.7c0,0,6.3-12.7,0.7-20.5
				C1984,865.3,1979.6,872.4,1979.6,872.4z"/>
			<path class="st22" d="M2005.8,1032.9c-2.1,2.5-8.8,3.3-15.9,4.5c-5.6,0.9-11.5,2.1-15.6,4.5c-9.5,5.6-40.4,24.4-49.5,23.5
				c-3.5-0.3-2.9-7-0.7-16c3.4-14.1,10.4-33.6,10.4-42.1c0-4.6,1.5-15.6,3.6-28.2c0.2-1,0.3-2,0.5-3.1c4.1-24.4,9.7-53.2,9.7-53.2
				s6.3,13.7,18.6,13.7c12.3,0,9.4-10.5,9.4-10.5s11.2,1.3,13.8,4.2c2.6,2.8,9.4,15.2,10.7,18.5c0,0,0.3,4.3-10.3,6.3
				c0,0,2.6,11.6,2.9,19.3c0.2,5.7-3.9,23.6-5.1,34.7c-0.4,3.9-0.5,7,0.2,8.4c0.8,1.8,3.5,3.6,6.5,5.3
				C2000.9,1026.5,2008.3,1029.9,2005.8,1032.9z"/>
			<path class="st23" d="M1994.9,1023.1c6.8,11.6-18.4,15.1-22.6,17.5c-9.5,5.6-38.4,25.7-47.5,24.9c-3.5-0.3-2.9-7-0.7-16
				c3.4-14.1,10.4-33.6,10.4-42.1c0-4.6,1.5-15.6,3.6-28.2l10.9-10.5c0,0,11.7,30.2,22.9,35.2c5.8,2.6,12,4.3,16.4,5.4
				c-0.4,3.9-0.5,7,0.2,8.4C1989.2,1019.5,1991.9,1021.3,1994.9,1023.1z"/>
			<path class="st14" d="M1944.9,932.1c0,0-9.3-5.7-18.4,5.1c-9,10.8,6.4,87.7,19.8,91.6c14.9,4.4,57.8-0.7,57.8-0.7l-0.8-6.7
				c0,0-45.7-8.8-47.6-11.2C1953.8,1007.7,1949.7,933.3,1944.9,932.1z"/>
			<path class="st22" d="M1948.3,923c0,0-19.2,1.7-24.7,8c-5.6,6.3-7.2,23.4-7.2,23.4s16.9,13.6,37.2,8.3L1948.3,923z"/>
			<g>
				<rect x="2008.6" y="1031.6" class="st33" width="25.3" height="3"/>
				<path class="st33" d="M2028.6,1034.2c0.2-1,23.3-37.2,23.3-37.2h51.3l-25.7,36.2L2028.6,1034.2z"/>
				<path class="st17" d="M2030.7,1034.6c0.2-1,23.4-37.6,23.4-37.6h49l-24.5,37.6H2030.7z"/>
				<path class="st33" d="M2073.9,1016c-0.5,1.5-2.1,2.7-3.6,2.7s-2.2-1.2-1.7-2.7c0.5-1.5,2.1-2.7,3.6-2.7
					S2074.4,1014.5,2073.9,1016z"/>
			</g>
			<path class="st14" d="M1999.6,1020.9c0,0,14.9-2.9,16.6-2.2c1.7,0.7,11,9.1,10.1,10.8c-1,1.7-4.8,2.9-9.1,1.4
				c-4.3-1.4-13.7-2.2-15.4-4.3C2000,1024.5,1999.6,1020.9,1999.6,1020.9z"/>
		</g>
	</g>
	<g>
		<path class="st31" d="M2316.2,1085.2h-171.8c-5.4,0-9.9-4.4-9.9-9.9l0,0c0-5.4,4.4-9.9,9.9-9.9h171.8c5.4,0,9.9,4.4,9.9,9.9l0,0
			C2326.1,1080.8,2321.7,1085.2,2316.2,1085.2z"/>
		<g>
			<g>
				<path class="st30" d="M2202.1,1085.2l-5.4,21.2v0l-15,58.7l-13.4,52.5c-0.2,0.8-1.2,1.4-2.4,1.4c-1.1,0-1.9-0.6-1.7-1.3
					l11.6-59.5l12.4-63.6l1.9-9.6L2202.1,1085.2z"/>
			</g>
			<path class="st13" d="M2196.6,1106.4c0.7-9.1-8.7-11.9-8.7-11.9l1.9-9.6l12.2,0.2L2196.6,1106.4z"/>
		</g>
		<g>
			<g>
				<path class="st30" d="M2265.4,1085.2l5.4,21.2v0l15,58.7l13.4,52.5c0.2,0.8,1.2,1.4,2.4,1.4c1.1,0,1.9-0.6,1.7-1.3l-11.6-59.5
					l-12.4-63.6l-1.9-9.6L2265.4,1085.2z"/>
			</g>
			<path class="st13" d="M2270.8,1106.4c-0.7-9.1,8.7-11.9,8.7-11.9l-1.9-9.6l-12.2,0.2L2270.8,1106.4z"/>
		</g>
	</g>
	<path class="st5" d="M2289.2,1218.9c0,0-38.9-33.2-5.2-96.2c33.7-63,151.7-81,176.6-128.5l-7.3,236.9L2289.2,1218.9z"/>
	<path class="st7" d="M2783,699.7v417c0,70.6-57.7,128.3-128.3,128.3h-810.8c-29.5,0-56.8-10.1-78.6-27.1h570.4
		c60.3,0,109.6-49.3,109.6-109.6V714.2c0-60.3-49.3-109.6-109.6-109.6c0,0-466.5-1.8-554.5,0c-35.9,0.7-52.7,44.1-52.7,44.1
		c6.6-54.7,82.4-77.3,115.3-77.3h810.8C2725.2,571.4,2783,629.2,2783,699.7z"/>
	<g>
		<polygon class="st27" points="2294.1,1035.4 2293.8,1042.8 2293.1,1058.3 2292.8,1065.5 2273.1,1065.5 2272.7,1058.3 
			2271.7,1042.8 2271.3,1035.4 		"/>
		<polygon class="st34" points="2294.5,1030.4 2271.2,1030.4 2270.2,1035.4 2295.2,1035.4 		"/>
		<polygon class="st24" points="2293.8,1042.8 2293.1,1058.3 2272.7,1058.3 2271.7,1042.8 		"/>
	</g>
	<g>
		<path class="st24" d="M2194.6,1037.5l-0.1,3l-0.1,2.2l-0.6,14.3l-0.1,1.2l-0.3,7.1h-19.7l-0.4-7.1l-0.1-1.2l-0.9-14.3l-0.1-2.2
			l-0.2-4.1l0.1-0.1c0,0,4.6-0.8,7.3,0.9c2.8,1.8,5.8-1.7,8.3-0.7c2.5,1,2.7,2.3,4.7,1.4C2192.8,1037.8,2193.7,1037.6,2194.6,1037.5
			z"/>
		<polygon class="st35" points="2194.7,1035.4 2194.6,1037.5 2194.5,1040.6 2194.4,1042.8 2193.8,1057.1 2193.7,1058.3 
			2193.4,1065.5 2173.7,1065.5 2173.3,1058.3 2173.2,1057.1 2172.3,1042.8 2172.2,1040.6 2171.9,1036.5 2171.8,1035.4 		"/>
		<path class="st35" d="M2194.8,1035.4c0-0.1,0-0.2,0-0.3c0-6.3-5.1-11.5-11.5-11.5c-6.3,0-11.5,5.1-11.5,11.5c0,0.1,0,0.2,0,0.3
			H2194.8z"/>
		<g>
			<path class="st27" d="M2181.4,1063.6l-1-0.1c0.1-0.6,3.3-43,3.8-45.8c0.5-3.1,3.6-4,3.7-4.1l0.1,0l16-2.8l0.2,1l-16,2.8
				c-0.3,0.1-2.5,0.9-3,3.3C2184.7,1020.7,2181.4,1063.5,2181.4,1063.6z"/>
		</g>
		<polygon class="st27" points="2194.5,1040.6 2194.4,1042.8 2193.8,1057.1 2173.2,1057.1 2172.3,1042.8 2172.2,1040.6 		"/>
	</g>
	<path class="st36" d="M2783,1083v33.7c0,70.6-57.7,128.3-128.3,128.3h-810.8c-29.5,0-55.1-10.1-76.9-27.1l568.7,0
		c38.3,0,72.2-19.9,91.8-49.9C2564.5,1175.8,2715.8,1114.3,2783,1083z"/>
	<g>
		<g>
			<path class="st37" d="M2632.9,1153.2c0,0-14.7-17.1-0.9-28c0,0,10.1-6.1,18.3-5.6c0,0-11.6,19.5-7.9,21.5
				c3.8,1.9,11.4-22.7,11.4-22.7s22.9-2.2,30.3,1.3c0,0-19.6,16-15.5,17c4.1,1,25.3-14.8,25.3-14.8s21.3,3.6,20.2,16.6
				c-1.1,13-8.5,17-11.7,16.7c-3.2-0.3-22.1-7.6-22.5-4.9c-0.4,2.6,11,11.3,18.9,11.7c0,0-15,16.6-25,11.8
				c-10-4.8-10.8-12.4-17.1-15.2s-11.5-2.8-9,0.1c2.6,2.9,13.8,5.7,17.4,12c3.6,6.3,6.8,10.6-3.6,9c-10.3-1.6-27.2-9.1-27.9-17.8
				C2632.9,1153.2,2632.9,1153.2,2632.9,1153.2z"/>
			<g>
				<path class="st37" d="M2703.6,1138.8c0,0-57.9-2.2-70.7,14.3c0,0-2.8,8.5-11.5,16.2l-1.4,3.7c0,0,10-10.6,13.6-11.2
					C2633.6,1161.8,2628,1141.3,2703.6,1138.8z"/>
				<path class="st37" d="M2621.4,1169.4c0,0-12.4,9.2-13.3,25.6l2.3,0.2c0,0,4-17,11.2-23.6
					C2628.7,1164.9,2621.4,1169.4,2621.4,1169.4z"/>
			</g>
		</g>
		<g>
			<path class="st38" d="M2581.5,1131.6c0,0,23.4-13.1,12.5-30.9c0,0-8.7-10.9-18.1-13.7c0,0,5,26.5,0,27.1
				c-5,0.6-3.4-29.9-3.4-29.9s-24.6-11.8-34.3-10.9c0,0,15.3,25.9,10.3,25.2c-5-0.6-22.1-26.8-22.1-26.8s-25.2-4.7-29.3,10.3
				c-4.1,15,2.5,22.4,6.2,23.4c3.7,0.9,27.7,0.6,27.1,3.7c-0.6,3.1-16.8,8.1-25.9,5.3c0,0,10,24.6,23.1,23.4
				c13.1-1.2,17.1-9.3,25.2-10c8.1-0.6,14,1.6,10,3.7s-17.8,0.7-24.3,6.3c-6.5,5.6-11.8,9,0.3,11.5c12.2,2.5,34,0.9,38.3-8.4
				S2581.5,1131.6,2581.5,1131.6z"/>
			<g>
				<path class="st37" d="M2508.6,1086.7c0,0,65.5,21.2,72.9,44.9c0,0-0.3,10.6,6.2,22.8v4.7c0,0-6.9-15.9-10.6-18.1
					C2577.2,1141,2591.8,1120.4,2508.6,1086.7z"/>
				<path class="st37" d="M2587.8,1154.4c0,0,10.1,15.3,4.3,34l-2.6-0.7c0,0,2.5-20.6-2.8-30.9
					C2581.5,1146.4,2587.8,1154.4,2587.8,1154.4z"/>
			</g>
		</g>
		<g>
			<path class="st38" d="M2618.7,1113.6c0,0-30.8-17.3-16.4-40.7c0,0,11.5-14.4,23.8-18.1c0,0-6.6,34.9,0,35.7
				c6.6,0.8,4.5-39.4,4.5-39.4s32.5-15.6,45.2-14.4c0,0-20.1,34.1-13.6,33.3c6.6-0.8,29.2-35.3,29.2-35.3s33.3-6.2,38.6,13.6
				c5.3,19.7-3.3,29.6-8.2,30.8c-4.9,1.2-36.6,0.8-35.7,4.9c0.8,4.1,22.2,10.7,34.1,7c0,0-13.1,32.5-30.4,30.8s-22.6-12.3-33.3-13.1
				c-10.7-0.8-18.5,2.1-13.1,4.9c5.3,2.9,23.4,0.9,32,8.3c8.6,7.3,15.6,11.9-0.4,15.1c-16,3.3-44.8,1.2-50.5-11.1
				C2618.7,1113.6,2618.7,1113.6,2618.7,1113.6z"/>
			<g>
				<path class="st37" d="M2714.9,1054.4c0,0-86.3,27.9-96.1,59.2c0,0,0.4,14-8.2,30v6.2c0,0,9-21,14-23.8
					C2624.5,1125.9,2605.2,1098.8,2714.9,1054.4z"/>
				<path class="st37" d="M2610.5,1143.6c0,0-13.3,20.2-5.7,44.8l3.4-0.9c0,0-3.3-27.1,3.6-40.7
					C2618.8,1133.1,2610.5,1143.6,2610.5,1143.6z"/>
			</g>
		</g>
		<path class="st39" d="M2617.7,1241.7c33.3,0,60.4-27,60.4-60.4h-120.7C2557.3,1214.7,2584.3,1241.7,2617.7,1241.7z"/>
		<path class="st40" d="M2632.5,1241.2c-2.5,0.3-5,0.5-7.5,0.5c-33.3,0-60.4-27-60.4-60.4h15
			C2579.7,1212.1,2602.7,1237.5,2632.5,1241.2z"/>
		<path class="st39" d="M2678.9,1244.8h-122.4l0,0c0-4.1,3.3-7.4,7.4-7.4h107.5C2675.5,1237.3,2678.9,1240.7,2678.9,1244.8
			L2678.9,1244.8z"/>
		<rect x="2555.3" y="1181.3" class="st41" width="124.1" height="1.9"/>
	</g>
	<g>
		<path class="st14" d="M853.5,629.2c0,0-10.4-18.4,0-22.1c10.4-3.7,15-0.3,15.5,3.9c0.5,4.2-3.9,20.7-3.9,20.7L853.5,629.2z"/>
		<path class="st5" d="M861.8,746.9c-18.9,3.4-36.2,5-51.9,5.3c-14.9,0.3-28.2-0.4-39.9-1.8c-3.1-0.4-6.1-0.8-9-1.2
			c-30.6-4.6-47.4-12.9-47.4-12.9s27.9-58.5,50.5-56.2c26.5,2.6,71.3,26.4,75.8,19.7c5-7.5,9.2-71.9,9.2-71.9
			c11.7-8,18.7,0.4,18.7,0.4S890.7,741.7,861.8,746.9z"/>
		<path class="st29" d="M861.8,746.9c-18.9,3.4-36.2,5-51.9,5.3c-14.9,0.3-28.2-0.4-39.9-1.8c-7-22.4-12.1-45.3,2.1-31.5
			C797.1,743.2,861.8,746.9,861.8,746.9z"/>
		<path class="st28" d="M711.4,1218.9c0,0-2,23.2,2.9,25.7l62.9-0.1c0,0,0-7.3-10.1-8.9c-10.1-1.6-27.8-7.5-30.8-20.7
			C733.3,1201.7,711.4,1218.9,711.4,1218.9z"/>
		<path class="st42" d="M757.6,937.6c-0.3,15.2-1,30.9-2.5,45c-6.8,66.8-9.2,147.6-10.2,163.2c-1.7,27-7,70.2-7,70.2
			s-10.6,10.1-31.2,5.3c0,0-17.1-62.2-20.9-127.7c-0.1-1.1-0.1-2.2-0.2-3.2c-0.4-8.7-0.9-18.6-1.4-29.2
			c-3.1-71.5-6.6-177.7-6.6-177.7l78.9-18.5C756.5,864.8,758.4,899.7,757.6,937.6z"/>
		<path class="st28" d="M757.6,937.6c-20,34.5-58.1,98-73.4,123.5c-3.1-71.5-6.6-177.7-6.6-177.7l78.9-18.5
			C756.5,864.8,758.4,899.7,757.6,937.6z"/>
		<path class="st14" d="M557.8,870.8c0,0-12.8,15.1-14,19.3c-1.2,4.2-3.2,19.3-2.1,23.8c1.1,4.5,9.6-12.6,12.7-14.5
			c3.1-1.8-2.3,6.8-1.3,8.3c1.1,1.4,7.2-5.1,9.6-7.3c2.4-2.2,2.2-14,5-21C570.7,872.4,557.8,870.8,557.8,870.8z"/>
		<path class="st28" d="M554.8,1192.4c0,0-11.2,10.2-9,17.5c2.2,7.3,12.3,12.1,13.6,21c1.4,8.9,6.8,13.7,11.7,13.7
			c4.9,0,23.4,0,23.4,0s3.6-6.2-5.1-8.1c-8.7-1.9-12-12.3-11.5-22c0.5-9.7-0.8-22.6-0.8-22.6l-18.6-4.3L554.8,1192.4z"/>
		<path class="st42" d="M744.1,884.9c0,0-73.9,158-113.2,227.3c-39.3,69.3-51.6,88.7-51.6,88.7s-22.5-8.9-24.6-14.9
			c0,0,15-133.8,41.3-166.5c14.9-18.4,32.3-73.8,33.2-93.1c0.8-19.3,18.1-65.5,18.1-65.5L744.1,884.9z"/>
		<path class="st5" d="M765.7,892.4c0,0-29.4,19.6-70.9,17.8c-18.2-0.8-54.4-6-60.3-20.5c-1.4-3.4-0.4-7.7,1.7-14.4
			c5.3-17.2,17.8-50.1,14-122.9c-0.4-6.8-0.2-13.1,0.5-19.1c3.9-35.9,24.5-57.1,44.3-64c48.4-16.9,64.6,6.5,64.6,6.5
			s21.4,17,24.6,52.4C790.7,799,765.7,892.4,765.7,892.4z"/>
		<path class="st14" d="M709.2,665.3c0,0,22.2,13.5,46.3,9.7c0,0,4.8-1.2,2.4-6.8c1.5-4.5,1.3-4.1,2.1-7.5
			c2.1-7.7,2.8-12.2,2.8-12.2l-13.7-14.4l-13-13.7C732.7,653.2,709.2,665.3,709.2,665.3z"/>
		<path class="st43" d="M734.2,632.8c0,0,7.4,19.9,26,27.8c2.1-7.7,3.5-15.8,3.5-15.8l-14.4-10.8L734.2,632.8z"/>
		<path class="st14" d="M778.2,647.8c0,0-42.4,5.3-45.4-20.8c-3-26.1-10.5-43,16.5-47.4c27-4.5,33.4,4.9,36.5,13.4
			C789,601.4,789.2,645.8,778.2,647.8z"/>
		<path class="st44" d="M719.4,575.4c-0.4-0.5-1.2-0.8-3.2-1c0,0,1.6-0.9,3.7-0.9c0.5-2.7,2.2-7.5,6.9-8.5c0,0-2.6,1.3-3,4.1
			c5.7-5.4,17.5-9,49.7-5.2c42.5,5,27.4,31.7,21.8,34.8c-5.6,3-19.2-6.4-29.5-6c-10.3,0.4-12.8,15.2-16.4,17.1
			c-3.6,1.9-2.1-1.6-6.7-4c-4.6-2.3-5.4,5.5-4.2,10.6c1.2,5.1-5.6,11.6-5.6,11.6s0,0-6.3-7.3c-6.3-7.3-11.3-37.4-8.1-43.7
			C718.9,576.5,719.2,575.9,719.4,575.4z"/>
		<g>
			<polygon class="st42" points="849,617 777,617.6 776.5,606.8 848.3,601.2 			"/>
			<polygon class="st42" points="903.4,618.8 825,619.9 824.1,600.2 902.3,594.2 			"/>
			<polygon class="st28" points="956.3,620.3 890.2,620.4 888.9,593.8 954.8,587.8 			"/>
			<path class="st28" d="M957.2,624.8L957.2,624.8c2-0.1,3.6-1.8,3.5-3.9l-1.6-34.2c-0.1-2-1.8-3.6-3.9-3.5l0,0
				c-2,0.1-3.6,1.8-3.5,3.9l1.6,34.2C953.5,623.3,955.2,624.9,957.2,624.8z"/>
			<path class="st42" d="M776.8,619.9L776.8,619.9c-1.8,0.1-3.4-1.3-3.4-3.1l-0.4-8.9c-0.1-1.8,1.3-3.4,3.1-3.4l0,0
				c1.8-0.1,3.4,1.3,3.4,3.1l0.4,8.9C780,618.3,778.6,619.8,776.8,619.9z"/>
		</g>
		<path class="st29" d="M636.2,875.4c5.3-17.2,17.8-50.1,14-122.9c-0.4-6.8-0.2-13.1,0.5-19.1l0,0c15.9-1.4,40.3,15.9,40.3,15.9
			S676,840.7,636.2,875.4z"/>
		<path class="st5" d="M709.2,665.3c0,0-40.9,7-62.2,33.1c-21.3,26-55.6,62.7-63.7,75.6c-8.1,12.9-30.6,100.3-30.6,100.3
			s1.5,2.8,7.7,4.4c5.9,1.6,10.3-0.9,10.3-0.9s29.8-51,41.1-76.5c4.7-10.6,85.3-52.6,115.6-48.2
			C739.2,754.8,709.2,665.3,709.2,665.3z"/>
		<path class="st14" d="M848.6,598.1c0,0,8.8,5.4,14.1,3.1c5.3-2.3,4.8-4.4,4.8-4.4S851.6,592.4,848.6,598.1z"/>
		<path class="st45" d="M748.9,693.8c0,0-17.9,113.3-145.2,146.2l-13.9,27.4l24.4,4.1c0,0,144.9-42,143-179.7L748.9,693.8z"/>
		<polygon class="st46" points="746.1,675.7 740.2,676.3 740.2,684.8 748.9,693.8 757.1,691.8 757.1,680 751.2,675.7 		"/>
		<path class="st29" d="M723.1,653.2c0,0-5.7,1.3-18.7,12.1c0,0,12.9,27.4,40.2,30.7c0,0-0.4-12.7,1.5-20.3
			C746.1,675.7,724.5,668,723.1,653.2z"/>
		<path class="st29" d="M746.1,675.7c0,0,13.3,7.1,14.3,18.1c0,0,5.1-8.1,3.6-13.6c-1.5-5.6-6-12-6-12S758.4,674.9,746.1,675.7z"/>
	</g>
	<g>
		<polygon class="st14" points="367.3,1223.5 364,1199.7 377.9,1188.1 382.3,1219.6 		"/>
		<path class="st28" d="M413.4,1244.8h-56.7c0,0-1.4-8.6,1.6-15.2c2.8-6.3,7.2-10.2,7.7-15c3.6,3.7,8,6.1,16.2,5
			c1,1.6,6.5,10.3,9.8,12.7C395.8,1235,412.3,1234.1,413.4,1244.8z"/>
		<path class="st5" d="M402.1,901.7c-3.7,29.8-6.7,57.9-9.2,84.1c-13.2,139.6-10.6,224.9-10.6,224.9s-1,2.5-9.1,2.6
			c-4.6,0-9.1-1-9.1-1s-29.5-91.1-27.2-143c0.3-6.2,1-11.9,2.3-16.8c7.1-26.5-26.2-128,10-165.8C385.2,848.9,403.8,888,402.1,901.7z
			"/>
		<path class="st29" d="M402.1,901.7c-3.7,29.8-6.7,57.9-9.2,84.1l-56.1,83.4c0.3-6.2,1-11.9,2.3-16.8c7.1-26.5-26.2-128,10-165.8
			C385.2,848.9,403.8,888,402.1,901.7z"/>
		<path class="st14" d="M446.7,617.4c0,0-1.4-6.8-2.9-12c-0.7-2.3,4.1-17.4,7.3-19.3c3.3-1.9,11.8,8.3,9.4,16.1
			c-1.2,4-3.3,17.1-3.3,17.1L446.7,617.4z"/>
		<path class="st14" d="M446.7,617.4c0,0-1.8-3.9-3.4-4.6c-1.6-0.6-3.3-7.1-4.5-9.7c0,0,1.1-1.7,3.1,0.5c1.2,1.3,3.9,5.2,3.9,5.2
			L446.7,617.4z"/>
		<path class="st14" d="M212.7,640.3c-0.3,0.7-0.8,2-1.3,3.2c0-0.3,0-0.7,0-1c0-2.4-9-15.5-12.7-16.3c-3.7-0.8-8.9,11.4-4.3,18.2
			c2.4,3.5,8.1,15.4,8.1,15.4l9.5-4.9c0,0,0.6-4.3,1.9-5.4c1.4-1.1,1.1-7.8,1.5-10.6C215.6,638.9,214,637.6,212.7,640.3z"/>
		<path class="st14" d="M272.3,1216.4c-0.8-7.6-1-27.7-1-27.7s20.5-6.5,19.7-2.1c-3.7,22.1-2.7,33-2.7,33l-8.3,4.9L272.3,1216.4z"/>
		<path class="st5" d="M385,900.3c0,0-79.1,216.8-94.7,310.9c0,0-3.6,2.5-10.3,1.7c-7.6-0.9-9.7-6.2-9.7-6.2s-14.3-112.7,14.1-151.9
			c19.5-26.9-8.4-145,37-154.5C366.8,890.8,385,900.3,385,900.3z"/>
		<path class="st23" d="M370.9,691.7C370.9,691.7,370.9,691.7,370.9,691.7c0-0.1,0-0.2-0.1-0.3c-0.5-1.9-1-3.8-1.5-5.7c0,0,0,0,0,0
			c-1.7-5.7-3.6-11.1-5.8-15.9c-1.2-2.7-2.5-5.3-3.8-7.6c-0.2-0.3-0.4-0.7-0.6-1l0,0c-3.1-5.1-6.2-8.7-9-9.8
			c-5.2-2-10.9-1.4-14.9-0.6c0.9-1.2,2.8-1.9,2.8-1.9c-2.5,0-7.7,3.3-7.7,3.3c-36.4-8.1-34.3,43.4-31.8,55.1
			c2.5,11.7-9.3,17.4-25.8,29.3c-31.6,22.8-31,47-31,47c0.3,0.1,0.6,0.3,0.9,0.4c1.3-3.1,4-9,6.8-10.3c-0.1,0.3-2.4,7.9-3,12.2
			c4.8,2.7,11.5,6.8,18.7,11.4c0,0,0,0,0,0c9.7,6.2,20.3,13.3,28.9,19.1c-0.4-2.4-0.8-5.7-0.2-7.6l2.7,8.4l0.4,1.1
			c5.5,3.7,9.8,6.7,12,8.2c0.2,0.2,0.4,0.3,0.6,0.4c0.6,0.4,1,0.7,1,0.7c-0.7-3,2.5-10.8,7.8-20.6c0.4-0.7,0.8-1.4,1.2-2.1
			c1.7-3.1,3.7-6.4,5.7-9.7c0.7-1.2,1.5-2.4,2.3-3.7c0,0,0,0,0,0c0.6-1,1.3-2,1.9-3l0,0c1.5-2.4,3.2-4.8,4.8-7.2
			c4.2-6.3,8.7-12.5,13.2-18.2c6.4-8.3,12.7-15.5,18-20.2c0.2-0.4,0.3-0.7,0.5-1.1c0.8-1.9,1.5-4.1,2-6.2c0.2-0.7,0.3-1.3,0.4-2
			c1.3-6.9,1.3-13.8,1.3-15.5c0.4,6.7,0.3,11.8-0.2,15.6c-0.1,0.8-0.2,1.6-0.3,2.3l0,0c-0.3,1.6-0.6,3-1,4.1
			c0.9-1.1,1.6-2.3,2.3-3.5c0.4-0.8,0.8-1.7,1.2-2.6C375.7,723.2,374.6,706.9,370.9,691.7z"/>
		<path class="st14" d="M364.1,743.9c0.1,0-10.2,7.5-19,6.5c-8.2-1-14.9-10.5-14.8-10.5c3.3-1.2,3.5-5.9,0.5-25.7l1.6,0.1l26.2,1.3
			c0,0,0.6,8.1,1.7,15.7C361.2,737.5,362.5,743.4,364.1,743.9z"/>
		<path class="st18" d="M358.6,715.5c0,0,0.6,8.1,1.7,15.7c-14.3,1.7-23.8-10.2-27.9-16.9L358.6,715.5z"/>
		<path class="st23" d="M329.3,711.8c0,0-9.2-10.7-12.5-20.5c-2.4-7-2.7-34.3,24.8-34.4c0,0,7.9-0.4,16,3.5
			c6.4,3.1,16.1,10.3,10.2,35l-1.3,8.2L329.3,711.8z"/>
		<path class="st20" d="M405.4,896.1c0,0-34.1,20.3-77,9.9c-0.5-0.1-35.3-5.7-35.3-5.7c0.6-1.6,5.1-28.5,5.7-30
			c7.6-19.6,21.5-126.1,33.1-131.3c3,3.2,11.4,5.4,18.7,4.8c8.3-0.7,11.1-4.3,10.5-8.2c9.2,4.4,16.3,8.4,16.3,8.4
			C385.8,756.6,405.4,896.1,405.4,896.1z"/>
		<path class="st14" d="M364.4,721.9c0,0-33.6,5.6-36.8-15.4c-3.1-21-9.6-34.4,11.7-38.9c21.4-4.4,26.7,2.9,29.5,9.7
			C371.6,684.1,373.1,719.9,364.4,721.9z"/>
		<path class="st23" d="M354.6,664.8c0,0-5.6,26-19.2,31.8c-13.6,5.8-20.3,2.9-20.3,2.9s9.6-10.3,9.6-25.7
			C324.7,673.8,345.9,654.1,354.6,664.8z"/>
		<path class="st23" d="M352.6,667.2c0,0,7.7,4.5,10.2,9.6c2.5,5.1,4.9,16,8,15.2c0,0,4.5-17.8-4.8-26.1
			C356.3,657,352.6,667.2,352.6,667.2z"/>
		<path class="st25" d="M457.5,617.9c-1.4-0.5-3.4-1.6-6-1.9c-2.3-0.2-5.3,0.6-5.3,0.6s-9.5,59-10.2,62.1
			c-0.7,3.1-40.7,48.2-51.5,48c-9.7-0.2-21.3,7.4-23.4,8.8c0,0,22.7,48,23.8,57c1.2,9.8,13,160.8,13,160.8s-0.7,7,12.4,3.2
			c13.1-3.8,16.4-6.9,16.4-6.9s-12.1-118.9-14.6-155.8c-0.3-5-1.1-9.6-2.3-13.8c-1.1-4.1-0.2-8.5,2.3-11.9
			c16.6-22.8,42.8-59.7,44.3-67.5C458.4,689.1,457.5,617.9,457.5,617.9z"/>
		<path class="st28" d="M319.5,1244.8h-56.7c0,0-1.4-8.6,1.6-15.2c2.8-6.3,7.2-10.2,7.7-15c3.6,3.7,8,6.1,16.2,5
			c1,1.6,6.5,10.3,9.8,12.7C301.8,1235,318.3,1234.1,319.5,1244.8z"/>
		<path class="st25" d="M358.4,797.2c-1.9-11.8-26.3-58.9-26.3-58.9s-15.4-4.6-25.6-0.9c-10.1,3.7-62.6-26-64.3-28.7
			c-1.7-2.7-29.8-55.1-29.8-55.1s-2.3-1.4-6.1,0.6c-3.7,1.9-3.7,5.7-3.7,5.7s21.7,66,27.5,76.2c3.5,6.2,32.7,27.6,55.4,43.6
			c4.3,3.1,6.6,8.3,5.9,13.5c-3.1,22.6-3.8,35.3-7.3,74c-2.9,32.1-4,94.3-4,94.3s25.4,8.8,42.9,10c17.5,1.2,21.3-17.3,21.3-17.3
			S360.4,809.3,358.4,797.2z"/>
		<path class="st20" d="M353.4,711.5c0,0,4.1,2.4,8.9,1.7c3.3-0.5,4.1-4.4,4.1-4.4s-2.3-0.7-6,0
			C356.7,709.6,353.4,711.5,353.4,711.5z"/>
	</g>
</g>
</svg>
