<?xml version="1.0" encoding="utf-8"?>
<!-- Generator: Adobe Illustrator 25.2.1, SVG Export Plug-In . SVG Version: 6.00 Build 0)  -->
<svg version="1.1" id="Layer_1" xmlns="http://www.w3.org/2000/svg" xmlns:xlink="http://www.w3.org/1999/xlink" x="0px" y="0px"
	 viewBox="0 0 200 73.5" style="enable-background:new 0 0 200 73.5;" xml:space="preserve">
<style type="text/css">
	.st0{fill:#E5E5E5;}
	.st1{fill:#DDDDDD;}
	.st2{fill:#069FE2;}
	.st3{fill:#C35C3A;}
</style>
<path class="st0" d="M21.9,72.7c0,0,51.6-75.5,153.3-66.2c0,0-95.7-34-170.5,66.2C4.7,72.7,21.9,72.2,21.9,72.7z"/>
<g>
	<g>
		<polygon class="st1" points="21.9,73 4.7,73 44.4,17.7 81,71.5 47.7,60.7 56.7,60.7 43.2,42 		"/>
		<polygon class="st1" points="43.2,46.5 35,57.7 52.2,57.7 		"/>
		<polygon class="st1" points="70.5,24.7 70.5,52.3 83.2,71 84.4,71 84.4,59.4 84.4,55.2 84.4,52.7 113.5,52.7 121.8,42.2 
			84.4,42.2 84.4,37 127.8,36.8 127.8,24.4 		"/>
	</g>
	<polygon class="st2" points="21.9,72.5 4.7,72.5 44.4,17.2 81,71 47.7,60.2 56.7,60.2 43.2,41.5 	"/>
	<polygon class="st3" points="43.2,46 35,57.2 52.2,57.2 	"/>
	<polygon class="st2" points="70.5,24.2 70.5,51.9 83.2,70.6 84.4,70.6 84.4,59 84.4,54.7 84.4,52.2 113.5,52.2 121.8,41.8 
		84.4,41.8 84.4,36.5 127.8,36.3 127.8,24 	"/>
	<polygon class="st2" points="178.1,23.7 178.1,69.9 167,69.9 167,42.7 153.7,58.6 153.7,58.6 140.4,42.7 140.4,69.9 129.3,69.9 
		129.3,23.7 140.4,23.7 153.7,39.5 167,23.7 	"/>
</g>
<g>
	<path d="M183.8,30.7V25h-2.1v-0.8h5.1V25h-2.1v5.7H183.8z"/>
	<path d="M187.7,30.7v-6.4h1.3l1.5,4.5c0.1,0.4,0.2,0.7,0.3,1c0.1-0.2,0.2-0.6,0.3-1l1.5-4.5h1.1v6.4H193v-5.4l-1.9,5.4h-0.8
		l-1.9-5.5v5.5H187.7z"/>
</g>
</svg>
